<?xml version="1.0" encoding="utf-8"?>
<!-- Generator: Adobe Illustrator 25.0.1, SVG Export Plug-In . SVG Version: 6.00 Build 0)  -->
<svg version="1.1" xmlns="http://www.w3.org/2000/svg" xmlns:xlink="http://www.w3.org/1999/xlink" x="0px" y="0px"
	 viewBox="0 0 784.3 1168.3" style="enable-background:new 0 0 784.3 1168.3;" xml:space="preserve">
<style type="text/css">
	.st0{fill:#FFFFFF;}
</style>
<g id="Layer_2">
</g>
<g id="Layer_1">
	<g>
		<path d="M711.6,66.1c-1.6,3-1.6,3-0.8,7.1c-3.4,0.4-3.3,0.4-3,4.1c0.3,4.4,0.2,8.7,0.2,13.1c0.3,19.9,0.4,39.8,0.4,59.7
			c0.1,57.3-0.1,114.7,0.1,172c0.1,31.4-0.1,62.7,0.2,94.1c0.9,113.6,0.3,227.2,0.3,340.8c0,37.8-0.2,75.5-0.3,113.3
			c-0.1,83.6,0,167.1,0,250.7c0,5-0.6,4.5,4.5,4.5c4.5,0,9,0,13.4,0c2.2,0,2.3-0.1,2.3-2.3c0-1.1,0-2.3,0-3.4
			c0-330.3,0-660.6,0.1-990.9c0-17.2,0.1-34.4,0.1-51.6c0-1.5,1-3.7-1.7-4.2c-0.1,0-0.3-0.5-0.3-0.8c-0.2-2.2,0.1-4.4-0.5-6.5
			c-0.2-0.6,0.2-1.1,0.8-1.1c1.7,0.1,1.6-0.9,1.9-2.1c0.6-2.9,0.1-5.8,0.3-8.7c0.3-4.1,0.4-4.2,4.7-4.8c0.7,0.9,0.4,2,0.3,3
			c-0.9,8.2-0.6,16.5-1,24.7c-0.4,9.7-0.1,19.4-0.5,29.1c-0.4,7.8,0,15.7,0,23.5c0,10,0,20,0,29.9c0,9.8,0,19.6,0,29.3
			c0,9.9,0,19.7,0,29.6c0,9.8,0,19.6,0,29.3c0,9.9,0,19.8,0.1,29.6c0,9.9,0,19.8,0,29.6c0,9.8,0.1,19.5,0.1,29.3c0,10,0,20,0,29.9
			c0,9.9-0.1,19.8-0.1,29.6c0,9.9,0.1,19.8,0.1,29.6c0,9.8-0.1,19.5-0.1,29.3c0,9.9,0.1,19.8,0.1,29.6c0,9.9-0.1,19.8-0.1,29.6
			c0,9.9,0.1,19.8,0.1,29.6c0,9.8-0.1,19.5-0.1,29.3c0,9.9,0.1,19.8,0.1,29.6c0,9.9-0.1,19.8-0.1,29.6c0,9.9,0.1,19.8,0.1,29.6
			c0,9.8-0.1,19.5-0.1,29.3c0,9.9,0.1,19.8,0.1,29.6c0,9.9-0.1,19.8-0.1,29.6c0,9.9,0.1,19.8,0.1,29.6c0,9.8-0.1,19.5-0.1,29.3
			c0,9.9,0.1,19.8,0.1,29.6c0,9.9-0.1,19.8-0.1,29.6c0,9.9,0.1,19.8,0.1,29.6c0,10.8-0.2,21.6-0.2,32.4c0,10.8,0.2,21.6,0.2,32.4
			c0,11.7-0.2,23.4-0.2,35.1c0,10.8,0.2,21.6,0.2,32.4c0,11.7-0.1,23.4-0.1,35.1c0,9.9,0.1,19.8,0.2,29.6c0,11.2,0,22.4-0.1,33.6
			c0,1.8-0.3,2-2.2,2c-5.3,0-10.6-0.4-15.9,0c-3.5,0.3-7,0.1-10.5,0.9c-1.7,0.4-3.5,0.1-5.2,0.1c-3.7,0-7.4,0.7-11.2,0.7
			c-204,0-407.9,0-611.9-0.1c-8.8,0-17.7-0.2-26.6-0.4c-0.7-2.3-0.3-4.7-0.3-7c0-40.8,0-81.6,0-122.3c0-39.9-0.1-79.9-0.1-119.8
			c0-46.9,0-93.8,0-140.7c0-46.9,0-93.8,0-140.7c0-48.8,0-97.5,0-146.3c0-48.4,0.1-96.7,0.1-145.1c0-39.8-0.1-79.7-0.1-119.5
			c0-26.7,0.1-53.3,0.1-80c0-11.7-0.2-23.5-0.5-35.2c-0.2-8.5-0.2-17-0.1-25.5c0-2.2-0.7-4.2-0.4-6.4c0.3-1.9,0.9-3.6,1.2-5.4
			c0.2-1.2,0.9-1.6,2.2-1.5c2.9,0.3,5.7,1,8.6,1.6c3.8,0.9,7.5,0.9,11.4,0.5c4.3-0.4,8.7-0.9,13.1-1c6-0.2,12-0.6,17.9-1
			c3-0.2,6.1-0.4,9-0.3c6.5,0.3,12.9-0.4,19.3-0.4c28.6,0.1,57.1-0.1,85.7-0.1c52.6,0,105.2,0,157.9,0c28.8,0,57.6,0.1,86.4,0.1
			c41,0,82.1,0,123.1-0.1c11.2,0,22.5,0.2,33.7,0c11.1-0.2,22.2-0.1,33.2-0.1c12.9,0,25.7-0.1,38.6-0.1c1.3,0,2.9-0.2,2.6,2
			c-0.1,0.9,0.4,1.2,1.3,1.3c2.6,0.2,5.2-0.4,7.8-0.5c0.6,0,1-0.3,1-0.9c-0.1-2.2,1.6-1.8,2.8-1.8c8.2-0.1,16.4,0.2,24.6-0.1
			c0.8,0,1.6,0.1,2.2,0.9c0.2,0.3,0.5,0.8,0.8,0.9c1.2,0.2,2.3,0.4,2.8,1.7c0.6,1.5,0.7,3,0.5,4.6c-0.2,1.1-1,2.1-1,3.2
			c0,0.7-0.6,0.7-1.1,0.9c-1.2,0.4-2.3,0.8-3.8,1.3c-0.3-1.9-0.3-3.6,0.1-5.3c0.2-0.9,0.5-2.1-0.3-2.6c-0.9-0.5-2-0.6-3.2,0
			c-3,1.7-6.2,1.2-9.3,0.3c-0.8-0.2-1.5-0.7-2.3-0.6c-4.7,0.1-9.4-0.4-14,0.7c-4.1,0.9-8.3,0.1-12.4,0.6c-7.9-2.6-16.1-1.1-24.1-1.2
			c-149.6-0.1-299.1-0.1-448.7-0.1c-36.8,0-73.6-0.1-110.4-0.1c-4,0-8.1,0.3-12.1,0.4c-4,0-8.1,0-12.1-0.2c-4.7-0.2-9.3-0.3-14,0.4
			c-3,0.4-6-0.5-8.9-0.8c-4.6-0.6-7,1.3-7,6c0,5,0,10,0,15c0,1.4-0.3,2.6-0.6,4c-1,3.4-0.8,7,0,10.4c0.4,1.6,0.6,3.2,0.6,4.9
			c0,96.6,0,193.2,0,289.9c0,10-0.1,20,0,30c0.5,78.9,0.1,157.8,0.2,236.7c0,2,0.2,3.9,0.4,5.9c0.2,2.9-0.1,5.8-0.5,8.7
			c-0.4,3.7-0.1,7.4-0.1,11.2c0,152.8,0,305.6,0,458.4c0,4.8,0,4.7,5,4.5c3.4-0.2,6.9-0.1,10.3-0.1c2.3,0,2.4,0,2.4-2.5
			c0-10.4,0-20.8,0-31.3c0-12.2,0.1-24.4,0-36.6c-0.3-24.6,0.2-49.2-0.3-73.8c-0.4-19,0-37.9-0.3-56.9c-0.4-18.3,0.1-36.6-0.2-54.8
			c-0.8-54-0.2-108-0.4-161.9C67,569.1,67.4,430,67.3,290.8c-0.1-66.6,0-133.2,0-199.8c0-1.9,0.4-3.9-1.8-5.2
			c-1.1-0.7-0.9-2.5,0.4-3.1c1.5-0.7,1.5-1.8,1.4-3.1c0-2.5,0.1-5,0-7.5c-0.2-2.4,1-3.6,2.9-4.6c5-2.6,10.3-2.8,15.5-1.5
			c3.8,0.9,7.7,1.8,11.6,2.3c3.4,0.4,6.7,1.2,10.1,1.8c1.3,0.2,2.5,0.3,3.7,0.2c4-0.6,8-1.3,12-1.9c5.3-0.8,10.7-1,16.1-1.3
			c5.2-0.3,10.5-0.7,15.7-0.9c6.5-0.2,13-0.3,19.5-0.3c8.1,0,16.3,0.1,24.4,0.1c72-0.8,144-0.2,216-0.4c10,0,20.1,0.4,30.1,0.2
			c7.4-0.2,14.7-0.1,22.1-0.1c15.1,0.1,30.1,0.2,45.2,0.2c28.9,0.1,57.9,0,86.8,0.1c29.6,0,59.3,0,88.9,0.1c1.7,0,3.5-0.5,4.9,1
			c0.3,0.3,1.2,0.1,1.8,0.1c1.8,0,3.5,0.1,5.3,0.5c1.1,0.3,2.3,0.6,2.7-1.1c0.2-0.7,1.1-0.4,1.7-0.4
			C706.5,66.1,708.9,66.1,711.6,66.1z M112.7,73c-3.2-0.2-3.2-0.2-4.9,1.4c-0.7,0.7-1.8,0.8-2-0.2c-0.4-1.6-1.4-1.4-2.6-1.4
			c-5,0-10-0.1-15-0.1c-0.2,0-0.4,0-0.6,0c-1.6,0.2-2,1.1-1,2.5c0.4,0.6,0.6,1.1,0.1,1.7c-0.4,0.5-1,0.8-1.6,0.7
			c-0.7-0.2-1.2-0.6-1.8-1.2c-1.1-1.3-2.7-2.1-3.7-3.6c-0.5-0.6-1.3-0.9-1.5-2c-0.4-2.3-2-3.7-4-3.6c-1.9,0.1-3.4,1.6-3.6,4
			c-0.3,4.2-0.5,8.4-0.6,12.7c-0.2,11.6-0.4,23.3-0.3,34.9c0,3-0.7,6.2,1.3,8.9c0.3,0.5,0,1.4,0,2.1c0.1,4-0.8,8-0.5,12
			c0.1,1.2,0.2,2.2,1.8,2.8c2,0.7,2.2,2.8,0.5,3.8c-1.6,1-1.7,2.1-1.4,3.5c0.3,1.5,0.4,3.1,0.4,4.7c0.1,5.4,0.9,10.8,1.7,16.1
			c1,6.2,1.4,12.4,1.4,18.6c0,80.4,0,160.7,0,241.1c0,49.4,0,98.8,0,148.2c0,1.2-0.2,2.4,0.3,3.9c1.2-1,2.2-1.4,3.2-0.4
			c0.6,0.7,0.7,1.6,0.2,2.3c-0.9,1.5-2.3,0.7-3.7,0.2c0,3.2,0,6.1,0,9c0,1.2,0.1,2,1.6,2c0.9,0,1.5,0.7,1.7,1.6
			c0.2,1.1-0.6,2.2-1.4,2.2c-2.4,0-1.9,1.6-1.9,3c0,14.9,0,29.8,0,44.7c0,0.7,0,1.4,0,2.4c1.1-0.4,2.1-1.3,3-0.2
			c0.4,0.5,0.6,1,0.3,1.7c-0.7,1.5-2.2,0.5-3,0.6c-0.8,6.7-0.6,13.2-0.6,19.6c0,1.7,0.1,2.7,2.3,2.7c1.7,0,2.5,1.1,2.5,2.6
			c0,1.5-0.8,2.4-2.4,2.8c-0.3,0.1-0.6,0-0.9,0c-1.1-0.1-1.4,0.5-1.4,1.5c0,0.9,0,1.9,0,2.8c-0.1,60.4,0.3,120.9-0.2,181.3
			c-0.2,19.5,0.2,38.9-0.3,58.4c-0.5,20.6-0.1,41.3-0.3,61.9c-0.2,37.6,0,75.2-0.1,112.9c0,7.6-0.3,15.2-0.3,22.8c0,3,0,2.9,3.1,3
			c5.2,0.2,10.4-0.6,15.6-0.5c2.5,0,2.6-0.1,2.4-2.7c-0.1-2.3-0.4-4.5-0.6-6.8c-0.1-0.8-0.1-1.7,1.2-1.9c-0.1,2.6,0.6,5,0.7,7.4
			c0.2,4,0.2,4,4.3,4c198.7,0,397.5,0,596.2,0c0.9,0,1.9,0,2.8,0c0.4,0,1.1-0.1,1.1-0.4c0-2.5,1.9-4.3,1.9-6.8
			c-0.1-8.2,0.2-16.4,0.2-24.6c0-70.4,0-140.9,0-211.3c0-80.5,0-161,0-241.6c0-73.3,0-146.7-0.1-220c0-38,0-76.1,0-114.1
			c0-40.3,0-80.5,0-120.8c0-37,0-74,0.1-111c0-0.7,0-1.5,0-2.2c0-0.7-0.3-1.2-1.1-1.3c-2.9-0.4-5.9-0.7-8.8-1.1
			c-0.4,2.9-0.4,2.9-3.1,3.1c-1.5,0.1-2.3,0.6-2.2,2.2c0,1.2-0.7,2.1-1.6,2.9c-1.2,1.1-2.6,1.2-3.7,0.4c-1.2-0.9-1.2-2.1-0.8-3.4
			c0.2-0.7,1-1.1,0.8-2c-0.7-0.4-1.4-0.2-2.1-0.2c-25.4,0-50.9,0-76.3,0c-1.1,0-2.3,0.2-3.4,0.1c-4-0.2-4.1-0.2-4,3.9
			c0,2.6-0.5,5-1.9,7.7c-0.6-4.2-1.2-7.8-0.2-11.5c-1.5-0.4-2.9-0.2-4.2-0.2c-144.2,0-288.5,0-432.7-0.1c-13.5,0-27.1,0.2-40.6-0.5
			c-2.7-0.2-2.8,0-3.5,2.7c-0.3,1.2-1.1,2.4,0.2,3.7c1.8,1.9,1.7,2.7-0.5,4.5c-1,0.7-1.2,1.6-0.8,2.4c0.8,1.4,0.5,2.2-0.5,3.3
			c-0.8,0.8-0.7,1.7,0.5,2.5c1.3,0.9,1.2,1.6-0.2,2.1c-1,0.3-1.3,0.8-1.4,1.7c-0.5,5.4-2,10.6-2.1,16c0,0.9-0.2,1.8-1.2,2.6
			c-0.1-2.8,0.3-5.3,0.4-7.9c0.1-3.7,0.1-7.5,1-11.2c0.9-3.6-0.8-7.4,1.4-10.7c0.1-0.1,0.1-0.2,0.1-0.3c-1.5-2.4-0.4-4.4,0.9-6.4
			c0.3-0.4,0.4-1,0.4-1.5C111.1,75.1,111.5,74.1,112.7,73z"/>
		<path d="M687.2,54.7c0.1,1.4-1.4,3-2.9,3.1c-1.4,0.1-2.7-0.9-2.7-2.3c0-1.3,1.6-3.1,2.9-3.2C685.9,52.1,687.1,53.2,687.2,54.7z"/>
		<path d="M719.7,59.6c0.1,1.2-1,2.4-2.3,2.5c-1.3,0.1-2.6-1.2-2.5-2.6c0.1-1.3,0.8-2.1,2.1-2.3C718.3,57.1,719.6,58.3,719.7,59.6z"
			/>
		<path d="M83.7,54.7c1.7,0,2.5,0.7,2.5,2.1c0,1.4-1.2,2.6-2.5,2.7c-1.2,0-2.3-1.2-2.2-2.5C81.6,55.4,82.3,54.7,83.7,54.7z"/>
		<path d="M70.1,54.3c0.1-1.2,1.4-2.2,2.6-2.1c1.3,0.2,1.9,1.1,2.1,2.3c0.2,1-1.4,2.4-2.5,2.3C71.2,56.8,70,55.5,70.1,54.3z"/>
		<path d="M58.1,45c1.5-0.1,4.4,1.6,4.9,2.8c0.2,0.5,0.4,1,0.1,1.5c-0.4,0.5-0.9,0.4-1.4,0.2c-1.7-0.5-3.1-1.6-4.4-2.8
			c-0.3-0.3-0.3-0.7-0.1-1.1C57.3,45.2,57.6,45,58.1,45z"/>
		<path d="M71.9,61.8c0.1,1.1-1.2,2.5-2.3,2.5c-1,0-2.2-1.1-2.2-2.2c-0.1-1.4,0.9-2.4,2.2-2.4C70.9,59.7,71.9,60.7,71.9,61.8z"/>
		<path d="M63.2,106.4c-1.1-0.1-2.1-1.3-2-2.3c0.1-1.1,1.3-2.2,2.3-2.1c1.1,0.1,2.1,1.3,2,2.4C65.4,105.5,64.4,106.4,63.2,106.4z"/>
		<path d="M93.7,55.3c0,1.2-0.9,2.2-2.1,2.3c-1,0.1-2.3-1.1-2.2-2.2c0.1-1.2,0.6-1.9,1.9-2C92.7,53.4,93.6,54.1,93.7,55.3z"/>
		<path d="M697.4,56.6c1.2,0,1.9,0.7,2.2,1.8c0.2,0.8-1.3,2.3-2.2,2.3c-1.2-0.1-1.7-1-1.9-2.1C695.3,57.7,696.4,56.6,697.4,56.6z"/>
		<path d="M726.7,52.6c-0.1,1.1-0.6,2-1.9,2c-1.1,0.1-1.8-0.5-1.9-1.6c0-1.1,0.6-2,1.8-2C725.9,50.9,726.5,51.5,726.7,52.6z"/>
		<path d="M109.6,53.7c1,0.2,1.8,0.5,1.8,1.7c0,1.1-0.4,1.8-1.6,1.8c-1,0-2.2-1-2-1.8C107.9,54.3,108.6,53.7,109.6,53.7z"/>
		<path d="M709.7,55.4c0,1.1-1,2.3-1.9,2.1c-0.9-0.2-1.8-0.7-1.8-1.7c0-1,0.7-1.7,1.8-1.7C708.8,54.1,709.6,54.4,709.7,55.4z"/>
		<path d="M62.4,80.1c-0.7,0-1.2-0.4-1.2-1.1c-0.1-1,1.1-2.3,2.2-2.1c0.6,0.1,1.5,0.2,1.5,1.2C64.8,79,63.5,80.1,62.4,80.1z"/>
		<path d="M61.8,53.5c0,1-0.4,1.7-1.4,1.7c-1.2,0.1-1.7-0.7-1.7-1.7c0-1,0.5-1.9,1.6-1.9C61.5,51.7,61.7,52.6,61.8,53.5z"/>
		<path d="M692.3,63.1c0,0.8-0.6,1.5-1.7,1.5c-1.2,0.1-1.7-0.6-1.7-1.7c0-1,0.5-1.6,1.5-1.6C691.4,61.3,692.3,61.6,692.3,63.1z"/>
		<path d="M721.4,64.1c0.9,0.2,1.4,0.8,1.3,1.7c-0.1,1-0.8,1.3-1.7,1.3c-1-0.1-1.5-0.7-1.3-1.6C719.9,64.6,720.5,64.2,721.4,64.1z"
			/>
		<path d="M62.8,66c0.8,0,1.4,0.4,1.5,1.2c0.1,1-0.5,1.6-1.4,1.6c-0.9,0-1.6-0.6-1.5-1.6C61.3,66.4,61.9,66,62.8,66z"/>
		<path d="M97.1,63.9c-1-0.2-1.8-0.5-1.9-1.5c0-0.9,0.6-1.4,1.6-1.4c0.8,0,1.4,0.2,1.5,1.2C98.3,63.1,97.8,63.6,97.1,63.9z"/>
		<path d="M64.4,91.9c0.1,1.1-0.4,1.8-1.1,1.9c-1,0.1-1.5-0.5-1.6-1.4c0-0.8,0.4-1.3,1.3-1.4C63.9,91,64.4,91.4,64.4,91.9z"/>
		<path d="M98.1,50.3c-0.5,0-1-0.1-1-0.7c0-0.4,0.4-0.7,0.8-0.8c0.7-0.2,0.9,0.3,1,0.8C98.9,50,98.6,50.3,98.1,50.3z"/>
		<path d="M56.4,60c0.6-0.1,1,0.3,1,0.9c0,0.4-0.2,0.5-0.5,0.6c-0.5,0.1-1.1,0-1.2-0.6C55.6,60.4,55.9,60.1,56.4,60z"/>
		<path d="M599.5,1022.3c-1.3-3.4-1.5-6.8-2.2-10c-0.4-1.9-0.7-3.9-1.2-5.8c-0.6-2.6-0.8-2.5-3.4-2.7c-9.6-0.7-19.1-0.3-28.7-0.7
			c-9.9-0.4-19.8-0.2-29.6-0.6c-9.4-0.4-18.7-0.2-28.1-0.6c-9.8-0.4-19.6-0.2-29.3-0.6c-9.5-0.4-18.9-0.1-28.4-0.6
			c-6.7-0.4-13.3-0.1-20-0.5c-0.8-0.1-1.7,0-2.5,0.1c-0.6,0-0.9,0.4-0.9,1c0,0.6,0.3,1,0.9,1c1.9,0.1,3.7-0.1,5.6-0.3
			c2.2-0.2,4.3-0.5,6.5-0.6c0.8,0,1.8,0,1.9,1.1c0.1,0.9-0.6,1.2-1.3,1.5c-0.6,0.3-1.2,0.4-1.8,0.4c-9.3,0.7-18.6,1.8-27.9,2.2
			c-6.2,0.3-12.5,0.2-18.7,0.5c-2.8,0.1-4.8-0.5-6.9-1.5c2.6-0.9,5.1-1.3,7.6-1.4c1,0,2.1,0.4,2.8-0.8c0.1-0.2,0.3-0.4,0.7-0.2
			c3.5,1.9,7.3,0.9,10.9,0.7c2.9-0.1,5.8-0.2,8.7-0.4c2-0.1,3.9-0.5,5.9-0.5c1.5,0,1.5-0.8,1.5-1.9c0-17.2-0.3-34.4,0-51.6
			c0.8-48,0.4-96.1,0.2-144.1c-0.1-23-0.1-46-0.2-69.1c0-1.6-0.8-3-1.1-4.4c-0.3-1.4,1.2-2.6,1.1-4.3c-0.2-10.6-0.1-21.3-0.1-31.9
			c0-2.4,0-2.4-2.6-2.1c-1.6,0.2-3.1,0.2-4.5-1.2c2.6-1.5,5.2-1.7,7.9-1.3c1.4,0.2,2.7,0.3,4,0.3c0.4,0,0.8,0,1.3,0
			c41.3-0.3,82.5-0.5,123.8-0.5c13.8,0,27.5,0,41.3-0.1c0.4,0,0.8,0,1.3,0c1.5,0.1,2.1-0.2,2-2.1c-0.2-3.9-0.1-7.9-0.1-11.9
			c-0.8,0.3-1,1.3-1.8,1.6c-1.3,0.5-2.5,0.3-3.5-0.6c-0.9-0.9-1-2.7-0.1-3.7c0.9-1,2-1.6,3.3-0.9c1.1,0.6,2.1,1.1,3.4,0.2
			c0.7-0.4,1.2,0.4,1.5,1.2c0.8,2,0.6,4.2,0.3,6.2c-0.4,2.8,0,5.6-1,8.3c-0.2,0.6-0.2,1.3,0.6,1.9c1.2,0.9,0.6,2.6,1.2,3.9
			c0.2,0.4-0.2,1.1-0.8,1.2c-1.8,0.3-1.6,1.6-1.6,2.8c0,14.9-0.3,29.8,0.1,44.7c0.4,13.1,0.2,26.2,0.3,39.4
			c0.2,20.7-0.1,41.5,0.3,62.2c0.6,24.7,0,49.4,0.4,74.1c0.2,9.8-0.2,19.6,0.2,29.4c0.7,17,0.1,33.9,0.4,50.9c0,1.5-0.6,3.2,1.2,4.2
			c0.2,0.1,0.2,0.6,0.2,0.9c0.1,5.7,1.1,11.4-0.3,17.1C600.1,1021.7,599.9,1021.8,599.5,1022.3z M454,978.7c0.2,0.1,0.4,0.2,0.6,0.2
			c8.2,0.2,16.4,0.4,24.6,0.7c8.2,0.3,16.4-0.1,24.6,0.7c5.1,0.5,10.4,0.4,15.6,0.5c12.4,0.1,24.8,0.7,37.2,0.7c2.9,0,5.8,0.3,8.7,0
			c0.5,0,1.2,0,1.2,0.6c0,0.8-0.6,1-1.3,0.9c-8-1-16-0.5-24-0.8c-10.9-0.4-21.8-0.8-32.7-0.3c-3,0.1-6-0.3-9-0.4
			c-11.6-0.1-23.1-0.4-34.6-0.7c-2.3-0.1-4.6-0.1-6.9-0.1c-1.8,0-3.6-0.4-5.3,0.2c-5,1.8-9.5,4.3-13.3,8.4c1,0.5,1.9,0.5,2.8,0.5
			c5,0.1,10,0.2,15,0.3c10.4,0.4,20.8,0.3,31.2,0.7c9.8,0.4,19.6,0.2,29.3,0.6c10.8,0.4,21.6,0.3,32.5,0.7c9.5,0.3,18.9,0,28.4,0.6
			c1.9,0.1,3.9,0.3,6-0.2c-0.7-1.7-0.6-3.3-0.6-5c0-91.4,0-182.8,0-274.2c0-0.8-0.1-1.7,0-2.5c0.2-1.6-0.1-3.8,0.8-4.8
			c2.6-3,4.4-6.6,7.4-9.5c-1.7-0.6-2.6-1.7-1.9-3.5c-1.5,0-2.6,0-3.8,0c-20.1,0.1-40.2,0.1-60.3,0.2c-12.4,0-24.8,0-37.2,0
			c-20.4,0-40.8,0.8-61.2,0.5c-2.7,0-2.7,0-2.8,2.7c0,14.3,0,28.6,0,42.8c0,1.5,0,2.8,1.9,3.2c0.8,0.2,1.2,1,1.2,2
			c0,1-0.5,1.8-1.4,1.8c-2.2,0.1-1.7,1.6-1.8,2.9c-0.1,19.7-0.2,39.4-0.3,59.1c-0.1,47.3-0.6,94.6,0.2,141.9c0.3,15,0,30,0,45
			c0,2.9-0.1,2.6,2.7,2.8c7.1,0.3,14.1,0.2,21.2,0.5c9.9,0.4,19.8,0.2,29.6,0.7c9.2,0.4,18.5,0.2,27.8,0.6c10,0.4,20,0.4,30,0.6
			c13,0.2,26,0.8,39,0.7c0.4,0,0.8,0,1.2,0.1c5.4,0.4,10.8-0.3,16.2,0.5c0.5,0.1,1.4,0.3,1.6-0.4c0.3-0.9-0.5-1.4-1.1-1.7
			c-1.4-0.7-2.1-1.8-2.5-3.2c1.3-0.5,2.4,0.2,3.5,0.1c0.5-0.9,0.3-1.8,0.2-2.7c0-3.4-0.2-6.9-0.2-10.3c0-15.3,0.2-30.6,0.2-46
			c0-4.2,0.1-8.3,0.6-12.5c1.2-9.8,1.4-19.6,1.3-29.5c-0.2-17.4,0-34.8-0.2-52.2c-0.2-20.9-0.1-41.9,0.1-62.8
			c0.1-13.4,0-26.9-0.2-40.3c-0.2-12.8,0-25.6,0-38.5c0-1.3,0-2.6,0-4.1c-1.8,1.4-3.1,3.1-5.5,3.2c-0.6,0-0.8,0.6-1.1,1
			c-1.7,2.2-3.6,4.3-2.7,7.5c0.2,0.6,0,1.2,0,1.9c0,92.1,0,184.3,0,276.4c0,0.6,0,1.3,0,1.9c0,3.4-1.8,5.2-5.1,5.2
			c-2.7,0.1-5.4-0.3-8.1-0.4c-10.2-0.3-20.4-0.2-30.6-0.6c-10.1-0.4-20.2-0.3-30.3-0.6c-12.5-0.3-25-0.5-37.5-0.7
			c-11.8-0.2-23.5-0.4-35.3-0.6c-2.2,0-4.4-0.1-6.6-0.2c-2.2-0.1-2.3-0.1-2.3-2.3c0-3.9,0.3-7.9,0.3-11.8
			c0.2-13.4,0.3-26.9,0.6-40.3c0.3-13.6,0.3-27.3,0.6-40.9c0.3-13.5,0.2-27.1,0.6-40.6c0.3-10.2,0-20.4,0.7-30.6
			c0.6-10,0.1-20,0.6-30c0.4-8.5,0.3-17.1,0.3-25.6c0-10.4,0.7-20.8,0.4-31.2c0-0.3,0-0.6,0-0.9c0.5-9.4-0.1-18.7,0.5-28.1
			c0.1-2.3,0.1-4.8-1.4-7c-0.1-0.1,0.1-0.3,0.2-0.5c0.7-0.2,0.9,0.3,1.2,0.7c1.6,2.4,3.2,4.8,4.8,7.3c0.8,1.3,1.4,2.4,3.3,1.3
			c1-0.6,2.2,0,2.9,1.2c0.7,1.2,0.1,2-0.6,2.8c-0.4,0.4-1.1,0.5-1.3,1.4c1.7,2.5,3.4,5.1,5.1,7.7c0.8,1.2,1.2,2.3,1.2,3.8
			c0,5.4-0.1,10.8,0.3,16.2c0.4,6,0.2,12.1,0.3,18.1c0,4.1,0,8.1,0,12.2c0,1.1-0.6,2.6,1.4,2.9c0.5,0.1,0.4,1.1-0.1,1.2
			c-1.9,0.2-1.3,1.6-1.3,2.6c0,8.2,0.1,16.4,0.3,24.7c0.4,16.1-0.1,32.3,0.3,48.5c0.4,17-0.2,33.9,0.3,50.9
			c0.5,16.9-0.1,33.8,0.3,50.6C453.6,963.4,453.8,971.1,454,978.7z M438,707.3c-0.8,0.6-0.7,1-0.7,1.4c-0.1,5.8-0.2,11.7-0.2,17.5
			c0,3.2,0.5,6.6-0.2,9.7c-0.4,2.1,1.9,2.8,1.5,4.2c-0.4,1.4-1.8,2.3-1.8,4.2c0,11.9-0.3,23.7-0.4,35.6c-0.2,17.6-0.6,35.2-0.7,52.8
			c0,2.7,0.1,5.4,0.1,8c-0.1,13.6-0.3,27.3-0.6,40.9c-0.3,13.4-0.3,26.8-0.6,40.3c-0.3,13.7-0.1,27.5-0.7,41.2c-0.1,3,0.2,6,0.4,9
			c0.3,5.2-0.6,10.4-0.4,15.6c0,0.7-0.3,1.5,0.6,1.9c0.9,0.4,1.2-0.5,1.8-0.9c4.2-3.2,7.8-7.2,13.1-8.7c3-0.8,2.8-1.1,2.9-4.1
			c0.3-13.8-0.5-27.7-0.4-41.5c0.1-11.1-0.1-22.3-0.1-33.4c-0.1-23.4-0.3-46.9-0.5-70.3c-0.1-10.2,0-20.4-0.2-30.6
			c-0.3-18.2,0.3-36.4-0.4-54.7c-0.2-4.7-0.2-9.4,0-14.1c0.2-3.5-0.6-6.4-2.6-9.3C444.3,717.2,441.3,712.3,438,707.3z M598.1,1010
			c0.3-1.6,0.9-3.1,0.7-4.8c-0.1-0.5-0.1-1.1-0.7-1.2c-0.6,0-0.8,0.5-0.9,1.1C597,1006.8,597.8,1008.3,598.1,1010z"/>
		<path d="M164.8,1003.7c0.6,1.4,1.9,3,0.2,4.4c-0.9,0.7-1.8,1-2.8,0.2c-1.5-1.2-1.6-2.6-0.6-3.9c-0.3-0.5-0.6-0.6-0.9-0.6
			c-3.8-0.1-3.2,0-3.2,3.2c0,10.3,0,20.6,0,31c0,1.4-0.4,2.9,1.4,3.8c0.8,0.4,0.8,1.7,0,2.1c-1.8,1-1.4,2.6-1.4,4.1
			c0.2,3.9-0.7,7.6-1.4,11.4c-1-2.7-1.6-5.4-1.6-8.2c-0.1-15.6,0-31.3,0-46.9c0-0.9-0.2-1.9,0.4-2.7c0.8-1.1,0.6-2.4,0.6-3.6
			c0-5.7,0-11.5,0-17.2c0.1-18.8-0.2-37.5,0.3-56.3c0.6-24.6,0-49.2,0.4-73.8c0.3-16-0.2-32.1,0.3-48.1c0.6-18.2,0-36.5,0.4-54.7
			c0.3-16.2,0.1-32.3,0.2-48.4c0-1.5,0.5-3.1-1.7-3.7c-0.7-0.2-1-1.2-0.4-1.8c0.9-0.9-0.3-2.2,0.6-2.9c1.1-0.7,2.4-0.3,3.7-0.3
			c12.8,0,25.6-0.1,38.5,0c29.1,0.3,58.2-0.2,87.2,0.3c15,0.3,30,0.1,45,0.3c1.1,0,2,0.3,3.1,0.9c1.3,0.7,3.2,0.4,4.9,0.5
			c7.1,0.4,14.1,0.7,21.2,0.4c8.3-0.3,16.6-0.7,24.9-1.1c4.1-0.2,8.3-0.5,12.4-0.7c1.7-0.1,3.3,0,5,1c-1.4,1.3-3.2,1.4-4.9,1.5
			c-9.8,0.3-19.5,1.1-29.3,1.4c-7,0.2-13.9,0.4-20.9,0.3c-3.6-0.1-7.3-0.4-10.9-0.5c-2.5-0.1-2.5-0.1-2.6,2.3c0,0.8,0,1.7,0,2.5
			c0,31,0.2,61.9,0,92.9c-0.3,49.8-0.2,99.6-0.1,149.4c0,19.1,0,38.1,0.2,57.2c0,1.6,0,3.1-0.9,4.5c-0.5,0.8-1.1,0.9-1.6,0
			c-0.3-0.4-0.5-0.9-0.7-1.4c-0.9-2.3-0.9-2.4-3.3-2.4c-5.3,0-10.6-0.1-15.9,0.2c-9.4,0.6-18.7,0.2-28.1,0.6
			c-9.9,0.4-19.8,0.2-29.6,0.6c-9.1,0.4-18.1,0.2-27.1,0.6c-10.1,0.5-20.2,0.2-30.3,0.7c-9.4,0.4-18.7,0.5-28.1,0.5
			C166.4,1003.4,165.6,1003.2,164.8,1003.7z M170,705.8L170,705.8c0.2,4.9,0.2,9.9,0.2,14.9c0,81.4,0,162.8,0,244.2c0,1,0,2.1,0,3.1
			c0,1.1,0.3,1.8,1.6,1.7c1.2-0.1,2.1,0.7,2,1.9c-0.1,1.3-0.9,2.2-2.3,2c-1.4-0.3-1.3,0.6-1.3,1.4c0,4.3,0,8.5,0,12.8
			c0,1.6,0.1,3.2-0.6,4.8c3.6,0.3,6.8-0.2,10-0.3c10.3-0.2,20.6-0.2,30.9-0.6c10.1-0.4,20.2-0.2,30.3-0.6
			c10.1-0.4,20.2-0.4,30.3-0.6c13.4-0.3,26.8-0.6,40.3-0.7c1.2,0,2.4,0.1,3.8-0.5c-3.3-2.7-6.1-5.3-9.9-6.8c-2.7-1.1-5.2-2-8-1.8
			c-5.8,0.5-11.6,0.3-17.5,0.5c-11.3,0.4-22.7,0.3-34,0.8c-1.9,0.1-3.7-0.9-5.6-0.4c-2.3,0.6-4.6,0.4-6.8,0.4
			c-11.5,0.2-23.1,0.4-34.6,0.6c-2.2,0-4.4,0.1-6.6,0.2c-0.8,0-1.7,0-2.5,0.2c-0.8,0.2-1.6,0.4-1.8-0.5c-0.2-1.2,0.9-0.9,1.5-0.8
			c11.3,0.4,22.7-0.5,34-0.6c5.7-0.1,11.4-0.2,17.1-0.4c7.8-0.2,15.6-0.9,23.4-0.9c9.6,0.1,19.1-0.3,28.7-0.6c2.2,0,4.4-0.2,6.6-0.2
			c1.1,0,1.4-0.4,1.4-1.5c0.3-9.6,0.3-19.1,0.5-28.7c0.4-16.2,0.2-32.5,0.2-48.8c0.1-24.2,0.4-48.3,0.5-72.5c0-9.4,0-18.7,0.2-28.1
			c0.4-17.7-0.3-35.4,0.4-53.1c0.3-6.2,0.2-12.5,0.2-18.7c0-1.1,0.2-2,0.8-2.9c4.8-7.3,9.5-14.6,14.4-21.9c0.3-0.5,0.4-1.5,1.5-1.1
			c0.5,1.4-1.4,2.1-1.1,3.1c0.6,1.9-0.3,3.6-0.2,5.4c0.7,9.3,0.3,18.7,0.6,28.1c0.4,14,0.2,28.1,0.7,42.2c0.3,8.5,0.2,17.1,0.3,25.6
			c0.1,4.4,0.1,8.7,0.3,13.1c0.4,7.2,0.5,14.3,0.6,21.5c0.3,13.3,0.3,26.6,0.6,40c0.3,13.5,0.2,27.1,0.7,40.6
			c0.3,8.5,0.2,17.1,0.3,25.6c0.1,4.8,0.1,9.6,0.3,14.3c0.4,9.3,0.3,18.5,0.3,27.8c0,2.4-0.1,2.3-2.5,2.5c-7.5,0.4-15,0.1-22.5,0.5
			c-10.4,0.5-20.8,0.2-31.2,0.7c-9.8,0.4-19.5,0.2-29.3,0.6c-11.3,0.4-22.7,0.2-34,0.7c-7.6,0.3-15.2,0-22.8,0.3
			c-2.9,0.1-5.8,0.5-8.7,0.4c-2.5-0.1-4.3-1.8-4.4-4.3c-0.1-0.9,0-1.9,0-2.8c0-92,0-184.1,0-276.1c0-0.9-0.2-1.9,0-2.8
			c0.8-3.3-1.8-5.1-3.2-7.4c-0.2-0.3-0.7-0.5-1.1-0.5c-2.2-0.2-3.4-1.8-5-3.2c-0.3,100-0.5,199.9-0.4,300c2.1-0.6,3.8-1.8,5.8-1.3
			c-0.6,2.9-3.4,3.4-5.2,5.2c2.5,0.8,4.9-0.2,7.3-0.2c9.6,0,19.1-0.1,28.7-0.6c9.6-0.4,19.1-0.2,28.7-0.6c9.7-0.4,19.3-0.2,29-0.6
			c9.5-0.4,18.9-0.2,28.4-0.6c9.8-0.4,19.6-0.1,29.3-0.7c5.5-0.3,11-0.2,16.6-0.2c2.9,0,2.9,0,2.9-2.9c0.1-17.4,0.1-34.8,0.2-52.2
			c0.1-50.8,0.2-101.5-0.1-152.3c-0.2-30.3,0-60.7,0-91c0-0.8,0-1.7,0-2.5c-0.1-2.6-0.8-3.2-3.4-3.3c-14.5-0.2-28.9-0.1-43.4-0.3
			c-26.6-0.4-53.2-0.1-79.7-0.1c-1,0-2.1,0-3.1,0c-11.4,0-22.7-0.1-34.1-0.1c-0.3,0-0.6,0-0.9,0c-0.4,0.1-0.9,0.2-0.7,0.7
			c0.9,1.9-1.4,1.9-1.8,2.9c1.9,2,3.4,4.2,5,6.4C168,704.1,168.4,705.7,170,705.8z M317.1,707.5c-0.9,0-1.1,0.4-1.3,0.7
			c-3.6,5.6-7.3,11.2-11,16.7c-0.7,1-0.8,2.1-0.8,3.3c-0.1,8.5,0,17.1-0.2,25.6c-0.4,17,0,33.9-0.3,50.9
			c-0.5,22.4-0.2,44.8-0.4,67.2c-0.1,11.1-0.1,22.3-0.3,33.4c-0.4,23.7-0.2,47.5-0.4,71.3c0,1.7,0.5,2.5,2.1,3.2
			c2.2,0.8,4.6,1.3,6.5,2.9c2.3,2,4.7,3.8,7.1,5.6c0.6,0.5,1,1.6,2,1.2c1.1-0.5,0.6-1.6,0.6-2.5c0-5.4-0.2-10.8-0.2-16.2
			c0-3.1,0.3-6.3,0.2-9.4c-0.5-8.2-0.2-16.4-0.5-24.6c-0.4-13.1-0.3-26.2-0.7-39.3c-0.3-14-0.2-28.1-0.7-42.1
			c-0.2-7.3,0-14.6,0-21.9c0-12.5-0.3-25-0.6-37.5c-0.3-13.8-0.2-27.7-0.6-41.5c-0.3-11.7-0.1-23.3-0.3-35
			C317.3,715.5,317,711.6,317.1,707.5z"/>
		<path d="M605.3,95.4c1.8,4.8,1.3,9.1,1,13.3c-0.2,3.3-0.2,6.6-0.4,10c-0.4,5.5-0.4,11-0.7,16.5c-0.5,8.2-0.2,16.5-1.8,24.5
			c-1,5.1-1.3,10-1.3,15.1c0,28.6-0.1,57.1,0,85.7c0.4,77.6,0.1,155.3,0.1,232.9c0,12.7,0.2,25.4-0.3,38.1
			c-0.5,13.3-0.1,26.7-0.3,40c0,1.6-0.4,3.3,0.8,4.8c0.4,0.4,0.1,1.4,0,2.1c-1.1,6.5-1.5,13-1.8,19.5c-0.3,7.7-0.3,15.4-0.6,23.1
			c-0.3,6.3,0,12.7-1.2,19c-0.1,0.3-0.2,0.5-0.5,1.3c-1-2.8-1.4-5.3-1.4-7.8c0-8.6,0-17.3,0.5-25.9c0.2-3.8,0-7.7,0-11.6
			c-6.2,0.5-12.4,0.3-18.6,0.2c-13.9-0.1-27.7,0-41.6,0c-1.5,0-2.8-0.2-4.3-0.6c-1.9-0.6-3.9-0.2-5.7,0.5c-1.1,0.5-2.1,0.7-3.3,0.7
			c-28.5,0-56.9,0-85.4,0c-0.6,0-1.3,0.1-1.9-0.1c-2.8-1.3-5.5-1-8.1,0.6c-0.8,0.5-1.7,0.4-2.3-0.2c-1.1-1.1-2.5-0.9-3.8-0.9
			c-3.6,0-7.3,0.2-10.9,0.1c-2.7-0.1-5.4-0.6-8.1-1.2c3.8-1.9,7.8-2.5,11.9-2.4c3.1,0.1,6.2-0.1,9.4-0.1c2.6,0,2.6,0,2.6-2.6
			c0-10.2,0-20.4,0-30.6c0-33.5,0.2-67.1-0.1-100.6c-0.1-10.5-0.7-21-0.2-31.5c0.5-10.9,0.2-21.8,0.3-32.8c0-5.5-0.6-11-0.4-16.5
			c0.9-27.8,0.2-55.6,0.5-83.4c0-2.3,0-4.6,0-6.8c0.2,0,0.5,0,0.7-0.1c0,1.1,0,2.2,0,3.3c0,17.8-0.1,35.6-0.1,53.4
			c0,42.4,0,84.9,0,127.3c0,37.1,0.1,74.1,0.1,111.2c0,2.2,0.1,4.4,0.8,6.6c0.1,0.3,0.1,0.5,0,0.8c-0.6,2.2-0.5,2.3,1.7,2.2
			c2.3-0.2,4.6-0.3,6.8-0.5c3.7-0.3,7.2,0.4,10.8,1.1c1.3,0.3,2.7,0.2,4,0.2c22.1,0,44.2,0,66.3,0c3,0,6,0.3,8.9,1
			c2,0.4,4,0.1,5.8-0.8c1.3-0.7,2.6-0.8,3.9-0.8c14.5,0,29,0,43.5,0c1.7,0,3.3,0.4,5,0.5c3.6,0.1,7-0.6,10.6-0.6
			c1.3,0,1.7-0.8,1.7-1.7c-0.2-4.4,1.9-8.8,0.4-13.3c-0.1-0.4-0.1-0.8,0-1.2c1.9-9,1.1-18.2,1.2-27.3c0.1-26.6-0.1-53.1,0.1-79.7
			c0.2-34.4,0.2-68.9,0.2-103.3c0-26.3,0.1-52.6,0.1-78.8c0-28.3,0-56.7,0-85c0-10.8-0.2-21.6-0.4-32.4c0-2.1-0.1-4.2-0.9-6.1
			c-0.8-1.9-0.4-3.9-0.6-5.9c-0.1-1.1,1.1-2.4-0.7-3.3c-0.6-0.3,0.4-1.5,0.9-1.6c3.6-1,3.1-3.8,3.2-6.5c0.3-7.5,0.8-14.9,1.1-22.4
			c0.3-6.5,0.7-13.1,0.7-19.6C603.4,101.4,604.1,98.7,605.3,95.4z"/>
		<path d="M390.6,595.3c-3.5,0.7-7,1.8-10.6,1c-0.8-0.2-1.7-0.1-2.5-0.1c-6.4-0.1-12.7,0.1-19.1-0.2c-5.9-0.4-11.8-0.4-17.8-0.6
			c-0.9,0-1.8-0.4-2.8-0.4c-1.6,0-3.2-0.4-4.3,1.6c-0.8,1.4-2.4,1.3-3.4,0c-0.9-1.1-1.7-1.7-3.1-1.6c-1.2,0.1-2.5-0.2-3.3,1.1
			c-0.4,0.6-1.3,0.6-2,0.6c-0.8,0-1.7,0-2.5,0c-22.8,0-45.6,0-68.5,0c-7.4,0-14.9,0.7-22.2-1.3c-0.5-0.1-1-0.5-1.5-0.2
			c-2.5,1.5-5.3,0.9-8,0.9c-12.7,0.1-25.4,0-38.1,0c-5.2,0-10.4,0.3-15.6,0c-1.2-0.1-2.5,0.1-3.8-1c-0.5,2.8-0.2,5.2,0.1,7.6
			c0.3,3,0.4,6,0.4,9c0,6.6,0.7,13.1,0.4,19.7c-0.3,7.1-0.3,14.1-1.1,21.2c-0.2,1.7-0.6,3.2-1.7,5c-1.1-2.3-1.1-4.5-1-6.7
			c0.1-5.3,0.5-10.6,0.7-15.9c0.2-8.2,0-16.4-0.4-24.6c-0.2-5.3-0.4-10.6-0.9-15.9c-0.8-7.3-1.1-14.7-2.3-22
			c-0.2-1.4-0.5-2.8,1.5-3.2c1-0.2,0.7-1.1,0.7-1.8c0-3.3,0-6.7,0-10c0-6.1,0.2-12.3,0-18.4c-0.6-13-0.1-26-0.4-39.1
			c-0.1-5.6-0.2-11.2-0.2-16.9c0-69.9-0.2-139.9,0.1-209.8c0.1-37.6,0-75.2,0.1-112.9c0-1.5,0.1-2.9,0.5-4.3
			c0.3-1.2,1.1-2.3-0.4-3.4c-0.6-0.4,0-1.2,0.8-1.1c1.4,0.1,2.6,0.7,3.5,1.8c0.3,0.3,0.5,1,0.2,1.1c-1.7,0.7-0.7,2-0.7,2.9
			c0,2.5,0,5-0.9,7.4c-0.7,1.8-0.5,3.7-0.6,5.6c-0.5,42.6-0.3,85.3-0.3,127.9c0,40.9-0.1,81.7,0,122.6c0.1,14.4-0.3,28.8-0.1,43.3
			c0.6,31.8,0.1,63.7,0.3,95.5c0,5.6-0.2,11.2,1.2,16.7c0.3,1.2-0.1,2.3-0.6,3.3c-0.9,2-0.7,4-0.5,6.1c0.3,2.5,0.6,4.9,0.8,7.5
			c2.4-1.1,4.8-0.6,7.1-0.4c2.8,0.3,5.6,0.5,8.4,0c0.8-0.1,1.7-0.1,2.5-0.1c14.4,0,28.8,0,43.1,0c1.5,0,2.8,0.2,4.2,0.8
			c2.1,0.9,4.2,1.1,6.6,0.5c2.6-0.6,5.3-0.6,8-0.7c25,0,50,0,75,0c1.7,0,3.3,0,4.9-0.7c2-0.9,4.3-0.6,6.5-0.6c0.9,0,1.9,0,2.8-0.1
			c0.6,0,1.1-0.4,0.9-1c-0.7-2.1,0.3-4.2,0.3-6.3c0-2.3,0.1-4.6,0.1-6.8c0-50.3,0-100.6,0.1-150.8c0-28.2,0-56.4,0-84.6
			c0-16.8,0-33.5,0-50.3c0-1.5,0-3.1,0.2-4.6c0.6,1.3,0.5,2.6,0.5,3.9c0,24.7-0.1,49.4,0.1,74.1c0,6,0.6,12.1,0.3,18.1
			c-0.6,12.8-0.7,25.6-0.3,38.4c0.2,8.2,0.5,16.4,0.3,24.7c-0.8,25.3-0.3,50.6-0.4,75.9c-0.1,22.2,0,44.4,0.1,66.6c0,3,0,2.8,2.9,3
			c7.6,0.5,15.2,0.4,22.7,1c6.1,0.4,12.3,0.2,18.4,0.2c3.4,0,6.8,0.4,10.2,0.9c1.4,0.2,2.8,0.2,4.2,0.3
			C390.6,594.8,390.6,595.1,390.6,595.3z"/>
		<path d="M670.2,622.4c-2.7,2.4-4.7,4.5-7.2,5.9c-3.9,2.2-8,3.5-12.4,3.6c-1.1,0-2,0.1-2.7,1.1c-1,1.2-1.9,1.1-2.7-0.3
			c-0.3-0.6-0.5-1.3-1.4-1.4c-5.4-1-9.9-3.7-13.6-7.7c-0.1-0.1-0.4-0.2-0.5-0.3c-0.5,0.1-0.7,0.5-0.7,0.9
			c-0.7,6.4-0.8,12.9-0.4,19.3c0.3,4.7-0.1,9.4,0.2,14c0.5,7.7-0.3,15.4,0.7,23.1c0.3,1.9,0.4,3.9,1.5,5.7c1.5,2.4,3.9,3.5,6.3,4.4
			c5.1,1.8,10.3,3.2,15.8,3.2c0.5,0,1,0,1.6,0.1c1.7,0.2,3.5,0,5.2,0.2c2.2,0.3,2.2-2.2,3.9-2.4c1.1-0.1,1.8-1.4,3-1.6
			c1.1-0.2,2-0.1,2.7,1c0.6,1.1,0.4,2-0.4,2.8c-0.8,0.7-1.6,1.4-2.5,1.8c-3.6,1.5-7.2,3-11.2,3c-6.1,0-12.2-0.6-18.1-2.5
			c-4.8-1.5-7.9-4.3-9.3-9.4c-1.2-4.3-1.8-8.4-1.8-12.8c0.1-17.6,0.2-35.2,0.3-52.8c0-1.7-0.3-3.2-1-4.8c-3-6.9-3.4-13.9-0.5-20.9
			c1.2-2.9,1.8-5.7,1.5-8.8c-0.2-2.7,0.9-4.7,2.2-6.9c1.5-2.6,3.5-4.2,6.5-4.4c0.4,0,1.1-0.1,1.4-0.7c-0.9-0.8-2.2,0.1-3.4-0.7
			c2.9-1.8,5.5-3.8,9-4c1.4-0.1,3.6,0.3,3.8-2.4c0-0.6,1.2-1.1,2.1-0.9c0.9,0.2,1.5,0.7,1.3,1.8c-0.2,1.1,0.4,0.8,1.1,0.8
			c4.1,0.2,8.3,0.1,12.4,0.8c2.5,0.5,5.1,1,7.5,2c0.9,0.4,2,0.7,1.4,2.2c-0.1,0.4,0.4,1.3,0.8,1.1c1.9-0.7,1.6,0.8,1.7,1.6
			c0.7,4.2,1.3,8.4,1.4,12.7c0.1,3,0.7,6,1,8.9c0.2,1.8,0.5,3.7,0.5,5.5c-0.3,8.8,0.5,17.7,0.5,26.7c1.1,0.1,2.3-0.6,3.2,0.4
			c0.3,0.4,0.7,0.8,0.6,1.4c0,1.4-1.4,2.1-3.9,2c0,1.5,0,2.9,0,4.3c0,9.4,0,18.8,0,28.1c0,3-0.4,6-0.6,9c-0.1,1-0.3,1.9-1.1,2.5
			c-1.1,0.7-1.6,1.9-2.2,3.3c-1.8-1.9-2.4-3.8-2.2-6c0.5-5.5,0.5-11,0.2-16.5c-0.3-5.7,0.2-11.4-0.7-17.1c-0.3-2-0.1-4.1-0.1-6.2
			c0-0.7,0-1.4-1.1-1.5c-2.2-0.2-3-0.9-2.8-2.2c0.3-1.9,1.7-1.8,3.1-1.5c0.2,0,0.4-0.1,0.7-0.2C670.4,628.1,670.5,625.6,670.2,622.4
			z M649.8,584.2c-1.9,0-3.3,0-4.6,0c-4.4,0-8.7,0.6-12.5,3.1c-0.7,0.5-1.5,0.7-1.5,1.7c-0.3,3.5-1.7,6.6-2.7,9.9
			c-1.1,3.6-1.8,7.3-1.4,11c0.7,6.7,5.4,10.9,10.5,14c8.8,5.5,18.2,5.1,27.3,0.3c1.7-0.9,3-2,3.4-4.2c0.2-1.4,1.1-2.7,1.7-4
			c3-6.5,3.1-13-0.2-19.5c-0.9-1.8-1.6-3.6-1.8-5.6c-0.1-0.8-0.2-1.3-0.9-1.8c-2.3-1.7-4.5-3.3-7.3-4.1
			C656.3,583.9,652.7,584.3,649.8,584.2z M668.5,580.4c-0.2-0.6-0.4-1.1-0.6-1.6c-1-2.7-2.8-4.1-5.9-4c-5,0.2-9.9,0.3-14.8,1.1
			c-3.2,0.5-5.2,2.1-7.5,3.8c0.6,0.4,1.1,0.1,1.6,0c2.5-0.6,5-1.3,7.6-1.3c4.7,0,9.2,1.1,13.4,3.3c0.5,0.3,1,1.2,1.8,0.4
			C665.3,580.8,666.9,581,668.5,580.4z M666.8,584.6c0.9,1.6,3.5,0.3,3.3,2.9c0.5-1.6,0.4-3-0.9-4.2
			C668.4,583.7,667.6,584.1,666.8,584.6z M632.5,584.2c1.3-0.9,2.6-1.7,3.9-2.6C634.5,581.6,633,582.1,632.5,584.2z"/>
		<path d="M578.5,580c-1.1-2-2.6-2.8-3.6-4.1c-0.5-0.6-1-1.1-1.4-1.6c-0.6-0.8-0.5-1.6,0.2-2.3c0.6-0.6,1.2-0.6,2-0.3
			c1.9,0.9,3.2,2.3,4.3,4c1,1.7,2.5,2.8,4.1,3.8c1.9,1.3,3.1,0.6,3-1.7c-0.1-4.2,0.2-8.3-0.3-12.5c-0.4-2.9-0.1-6-0.1-9
			c0-35.5,0-71.1,0-106.6c0-1.7-0.4-3.5,1.7-4.6c0.7-0.4,0.8-1.7,1.6-2.6c0.1,1.9,0.2,3.9,0.2,5.8c0.1,25.5,0.1,51.1,0.1,76.6
			c0,12.9,0,25.8,0.1,38.6c0,4.7,0.3,9.3,0.5,14c0,0.7,0.1,1.5,0,2.2c-0.3,2.8-1.4,3.8-4.2,3.9c-0.6,0-1.2,0-1.9,0
			c-47.8,0-95.6,0-143.5,0c-0.7,0-1.5,0-2.2,0c-1.1,0-2,0-2-1.6c0-1.4,0.4-2.2,1.9-2.1c0.9,0,1.9,0,2.8,0c44.2,0,88.3,0,132.5,0
			C575.6,580,576.8,580,578.5,580z"/>
		<path d="M170.4,442.5c0.5,1.5,0.9,3.1,2.5,3.9c0.2,0.1,0.2,0.8,0.2,1.1c0,0.8,0,1.7,0,2.5c0,35.3,0,70.6,0,105.9
			c0,6.7-0.2,13.5-0.4,20.2c0,0.6,0,1.3,0,1.9c0.1,1.9,1.2,2.6,2.8,1.6c1.6-1.1,3.3-2.2,4.4-3.9c1-1.6,2.3-2.9,4-3.8
			c0.8-0.4,1.5-0.6,2.3,0.1c0.8,0.8,0.7,1.8,0,2.5c-1.5,1.7-3.1,3.3-4.9,5.1c1.4,0.6,2.6,0.4,3.8,0.4c44.3,0,88.6,0,132.8,0
			c0.9,0,1.9,0,2.8,0c1.5-0.1,1.9,0.6,1.9,2.1c0,1.6-0.9,1.6-2,1.6c-0.7,0-1.5,0-2.2,0c-47.8,0-95.6,0-143.5,0
			c-4.9,0-6.3-0.9-6.2-6.1c1.3-36.2,0.3-72.4,0.7-108.6c0.1-8.6,0.3-17.2,0-25.8C169.6,443,169.7,442.7,170.4,442.5z"/>
		<path d="M454.7,322.5c0-7-0.2-14,0-20.9c0.4-13.5,0.2-27.1,0.4-40.6c0.1-5.7,0.1-11.4,0.2-17.2c0-15.3,0.6-30.6,0.5-45.9
			c0-5.3,0.1-10.6,0.2-15.9c0-0.5,0-1.1,0-1.6c0.2-0.9,0.8-1.5,1.7-1.5c0.8,0,1.2,0.7,1.2,1.5c-0.1,5.3,0.2,10.6-0.2,15.9
			c-0.1,1-0.2,2.1-0.2,3.1c-0.1,19.1,0.1,38.1-0.3,57.2c-0.4,21.5-0.3,43.1-0.7,64.6c-0.2,10.3,0,20.6-0.3,30.9
			c-0.3,10.7,0.2,21.5-0.3,32.2c-0.5,10.6,0,21.2-0.4,31.8c-0.3,10.1,0.2,20.2-0.3,30.3c-0.5,11.2-0.1,22.5-0.4,33.7
			c-0.1,4.8-0.2,9.6-0.2,14.4c0,16.2-0.6,32.5-0.5,48.7c0,5.2-0.1,10.4-0.2,15.6c0,0.6,0,1.3-0.1,1.9c-0.1,0.7-0.6,1-1.3,1
			c-0.8,0-1.1-0.5-1.2-1.2c-0.6-5.2-0.6-10.4-0.2-15.6c0.1-1,0.2-2.1,0.2-3.1c0.1-19.2-0.1-38.3,0.3-57.5
			c0.4-21.6,0.3-43.1,0.7-64.7c0.2-10.5,0-21,0.3-31.5c0.3-10.3-0.2-20.6,0.3-30.9c0.5-10.9,0.2-21.9,0.3-32.8
			c0-0.7,0.1-1.5,0.1-2.2C454.6,322.5,454.6,322.5,454.7,322.5z"/>
		<path d="M304.3,537.3c0-3.9,0.1-7.7,0-11.6c-0.4-14.1-0.2-28.1-0.4-42.2c-0.1-7.4,0.1-14.8-0.2-22.2c-0.4-13.7-0.2-27.5-0.4-41.2
			c-0.2-9.5,0.2-19-0.2-28.4c-0.5-11.8-0.1-23.5-0.4-35.3c-0.1-5.8-0.1-11.7-0.2-17.5c0-15.2-0.5-30.4-0.5-45.6
			c0-9.8,0.2-19.6-0.2-29.4c-0.5-11.3-0.1-22.7-0.4-34c-0.2-7-0.2-14-0.1-20.9c0.1-9.1-0.7-18.1-0.4-27.2c0-1.2-0.5-2.7,1.3-3.1
			c1.1-0.2,1.7,0.9,1.7,3.1c0.1,9.2,0.2,18.3,0.2,27.5c0,15.9,0.5,31.9,0.5,47.8c0,9.7-0.2,19.4,0.2,29c0.5,11.6,0.1,23.1,0.4,34.7
			c0.2,6.5,0.1,12.9,0.2,19.4c0.2,14.7,0.4,29.4,0.5,44c0,7.6-0.1,15.2,0.2,22.8c0.4,13.5,0.2,27.1,0.4,40.6
			c0.2,9.6-0.2,19.2,0.2,28.7c0.5,11.7,0.1,23.3,0.4,35c0.1,5.9,0.2,11.9,0.1,17.8c-0.1,8.2,0.4,16.4,0.5,24.6
			c0,2.2-0.3,4.3-0.4,6.5c0,0.8-0.2,1.5-1.2,1.4c-0.9,0-1.3-0.5-1.4-1.4c0-0.4,0-0.8,0-1.2c0-7.3,0-14.6,0-21.9
			C304.5,537.3,304.4,537.3,304.3,537.3z"/>
		<path d="M571.6,185.7c1.1,0.4,2.9-0.4,2.9,1.4c0.1,2-1.6,1.3-2.9,1.3c0,0.5-0.1,1-0.1,1.5c-0.1,26.3-0.3,52.5-0.4,78.8
			c-0.1,15.9,0.1,31.9,0,47.8c-0.3,31.2,0.4,62.3-0.3,93.5c-0.8,35-0.1,70-0.6,105c-0.1,7,0,13.9-0.4,20.9c-0.1,2.6,1,4.7,1.6,7
			c-2.2,1.8-1.4,4.4-1.5,6.7c-0.1,4.3,0,8.5,0,12.8c0,0.7,0,1.5-0.1,2.2c0,0.5-0.3,1-0.9,1c-0.6,0-1-0.3-1.1-0.9
			c-0.1-0.8-0.1-1.7-0.1-2.5c0-5.5,0-11,0-16.6c0-8.5-0.1-17,0-25.6c0.5-31.9-0.2-63.8,0.3-95.7c0.5-32.1,0.2-64.2,0.3-96.3
			c0.1-30.9-0.1-61.9,0.1-92.8c0.1-16.9,0.1-33.8,0.2-50.6c0-1.3-0.4-3.2,1.4-3.3c2.1-0.1,1.4,1.8,1.6,3.1
			C571.5,184.9,571.5,185.3,571.6,185.7z"/>
		<path d="M191.3,301.7c0,6.2-0.1,12.5,0,18.7c0.5,32.6-0.2,65.2,0.3,97.8c0.5,32-0.1,64,0.4,95.9c0.2,15.9,0.1,31.9,0.2,47.8
			c0,0.9,0,1.9-0.2,2.8c-0.1,0.6-0.6,0.8-1.2,0.7c-0.5-0.1-0.7-0.4-0.8-0.8c-0.1-0.9-0.1-1.9-0.1-2.8c0-13.2,0.2-26.5-0.1-39.7
			c-0.7-32.7,0.3-65.4-0.5-98.1c-0.7-31.7-0.1-63.3-0.5-95c-0.4-31.5,0.2-62.9-0.3-94.4c-0.3-16.6-0.1-33.1-0.3-49.7
			c0-0.8,0-1.7,0.1-2.5c0.1-0.7,0.6-1.1,1.3-1.2c0.7-0.1,1.2,0.4,1.4,1c0.2,0.4,0.2,0.8,0.2,1.2c0,0.5,0,1,0,1.6
			C191.2,223.9,191.7,262.8,191.3,301.7z"/>
		<path d="M431.5,147.9c2.1,1.7,2.3,4.2,3.3,6.3c-2.5,0.6-3.4-1.2-4.2-2.8c-0.5,0-0.8,0.1-0.8,0.5c-0.7,11.4-1.1,22.7-1.2,34.1
			c-0.1,15.5-0.2,30.9-0.3,46.4c-0.1,14.3-0.1,28.6-0.1,43c0,0.2-0.2,0.3-0.3,0.5c-0.8,0.1-0.6-0.6-0.7-1c-0.1-1.4-0.1-2.7-0.1-4.1
			c0-39.9,0-79.8,0-119.8c0-4.4,0.5-3.8-3.8-3.8c-10,0-20,0-30,0c-2.6,0-5.2,0.2-7.3-1.8c1.3-1.8,3.1-1.9,5-1.9
			c13.2,0.1,26.5-0.2,39.7,0.3c14.9,0.5,29.8,0.1,44.7,0.4c8.9,0.2,17.9,0.4,26.8,0.8c8.1,0.4,16.2,0.9,24.3,1.3
			c4.6,0.2,9.1,0.3,13.7,0.6c9.7,0.7,19.3,1,29,1c1,0,2,0,3,0c0-0.9-0.5-0.8-0.8-0.9c-0.8-0.4-1.6-0.9-1.4-1.9
			c0.2-1.1,1.1-1.7,2.2-2c1-0.2,1.8,0.4,2.8,0.4c1.3,0,2.3,0.7,2.7,1.8c0.5,1.3-1.1,1.5-1.7,2.4c0.5,0.7,1.3,0.5,1.9,0.4
			c2.9-0.2,5.8,0.8,8.7,0.4c2.2-0.3,4.3-0.5,6.5-0.4c1.8,0.1,3.5,0.3,5.3,0.5c0.6,0.1,1.3,0.4,1.3,1.1c-0.1,1-0.8,1.1-1.6,1
			c-4-0.7-8.1,0.1-12.1-0.1c-4.6-0.1-9.1-0.2-13.7-0.4c-1.2-0.1-2.5-0.1-3.7-0.1c-8.2,0.2-16.4-0.7-24.6-0.6c-6,0-12.1,0-18.1,0.1
			c-5.9,0-11.8-0.3-17.7-0.6c-6.1-0.4-12.3-0.4-18.4-0.8c-12.6-0.7-25.2-0.4-37.8-0.6c-2.5,0-4.9-0.6-7.5-0.5
			C440,147.5,435.8,147.7,431.5,147.9z"/>
		<path d="M366.3,148.4c-2.6,0.6-5.1,1.7-7.8,0.8c-0.7-0.2-1.4-0.1-2.2-0.1c-6-0.1-12.1-0.2-18.1-0.1c-1.4,0-2.7-0.5-4-0.5
			c-1,0-1.6,0.3-1.5,1.4c0,0.9,0,1.9,0,2.8c0,39.5,0,79,0,118.5c0,1.6,0.1,3.2-0.6,4.8c-0.9-41.5,0-83.1-2-125.2
			c-1.8,1.8-2.3,4.3-4.9,3.4c0.6-2.1,1.1-4.4,4-6.1c-6.9-0.2-13-1.5-19.2-0.4c-0.6,0.1-1.2,0.1-1.9,0.1c-8.8,0.1-17.5,0.2-26.3,0.1
			c-7.7,0-15.4,0.6-23.1,0.7c-6.2,0.1-12.4,0.9-18.6,1c-7.1,0.1-14.2,0.1-21.2,0.1c-5.5,0-11-0.4-16.5,0.5c-1,0.2-2.1,0-3.1,0
			c-6.5,0.1-13-0.3-19.4,0.3c-4.7,0.4-9.3-0.4-14-0.1c-1.3,0.1-2.7,0.1-4,0.4c-0.6,0.2-1.3-0.1-1.5-0.8c-0.2-1,0.6-1.3,1.3-1.4
			c3.1-0.4,6.2-0.9,9.3-0.5c2.5,0.3,4.9,0.5,7.4,0c1.3-0.2,2.7,0,4.1-0.1c1.3,0,2.7,0.4,2.4-1.9c-0.1-1,0.8-1.9,2-1.9
			c1.3,0,2.2,0.8,2.1,2.1c-0.1,1.3,0.4,1.6,1.6,1.5c4.6-0.2,9.1,0.2,13.7-0.4c3.6-0.4,7.3-0.1,10.9-0.3c9.7-0.4,19.3-0.9,29-1.3
			c8.5-0.4,17-0.8,25.5-1.2c16.9-0.9,33.7-0.4,50.6-0.5c3.1,0,6.2,0.4,9.3,0.6c0.2,0,0.5,0,0.6,0.1c2.6,1.9,5.6,1.1,8.5,1.1
			c6.5,0.1,12.9,0,19.4,0.2C360.8,146.3,363.8,146.4,366.3,148.4z"/>
		<path d="M217.4,179.8c-7.9-0.4-13.2,0.2-18.5-0.5c-1-0.1-1.3,0.2-1.4,1.1c0,0.8-0.4,1.4-1.3,1.6c-0.8,0.2-1.6-0.3-1.7-1
			c-0.2-1.6-1.3-1.3-2.3-1.3c-1.1,0-2.1-0.2-2.3-1.6c-0.2-1.5-1.2-2.1-2.6-2.3c-1-0.1-1.7-0.8-2-1.8c-0.6-2.7-2.8-4.3-4.6-6.1
			c-1.3-1.3-2.8-2.5-4.2-3.7c-0.7-0.7-1.3-1.5-0.3-2.4c0.9-0.8,1.7-0.3,2.4,0.4c2.1,2.3,4.2,4.6,6.3,6.9c1,1.1,1.7,2.3,3.3,2.7
			c0.9,0.2,1,1.2,1.4,1.9c0.8,1.7,2.1,2.8,4.2,2.5c3.6-0.4,7.3,0,10.9,0c11.3-0.2,22.7,0.4,34,0.7c11.3,0.4,22.7,0.3,34,0.5
			c7.6,0.1,15.2-0.1,22.8-0.2c0.6,0,1.2,0,1.9,0c0.9,0,2,0,2.1,1.3c0.1,1.3-1.2,1.3-1.9,1.6c-0.5,0.3-1.2,0.2-1.8,0.2
			c-0.8,0-1.7,0-2.5,0c-9.6-0.3-19.1,0.9-28.7,0.4c-10.6-0.6-21.2,0.1-31.8-0.7C226.8,179.7,220.8,180.2,217.4,179.8z"/>
		<path d="M490.1,177.3c8.7,0,17.5,0.3,26.2-0.1c7.4-0.3,14.8-0.2,22.1-0.6c8.9-0.5,17.9-0.4,26.8-0.3c1.8,0,3.1-0.5,4.4-1.8
			c3.6-3.9,7.2-7.8,10.9-11.6c0.4-0.4,0.7-0.8,1.1-1.1c0.7-0.5,1.4-0.3,1.9,0.3c0.5,0.5,0.5,1.2,0,1.7c-1.4,1.4-2.9,2.7-4.3,4.1
			c-2.9,2.9-5.9,5.9-8.8,8.8c-0.1,0.1-0.4,0.3-0.4,0.5c-0.3,2.8-2.4,2.6-4.4,2.6c-11.4,0-22.9-0.2-34.3,0.3
			c-10.1,0.4-20.2,0.2-30.2,0.6c-5.1,0.2-10.2,0.6-15.3,0.3c-7.5-0.4-15-0.3-22.5-0.4c-1,0-1.8-0.3-2.7-0.7
			c-0.6-0.2-0.7-0.7-0.7-1.2c0-0.6,0.4-1,1-1.1c0.8-0.1,1.7-0.1,2.5-0.1C472.4,177.3,481.3,177.2,490.1,177.3z"/>
		<path d="M592.3,160.3c-1.2-0.2-2.8,0.9-3.4-1.4c-0.2-0.8-1.2-0.5-1.9-0.6c-5.2-0.2-10.3-1-15.5,0c-0.3,0.1-0.6,0-0.9,0
			c-18,0.1-36,0.2-54.1,0.1c-12.6,0-25.2-0.6-37.7-0.9c-8.2-0.2-16.4-0.3-24.6-0.5c-2.4-0.1-4.6-1-7-1.1c4.3,0,8.5,0.2,12.8,0
			c29-1.2,58.1-0.1,87.1-0.7c8.8-0.2,17.7-0.1,26.5-0.4c4.5-0.1,9.1-0.6,13.7,0.5c0.6,0.1,1.3,0.1,1.8-0.1c1.4-0.8,2.3-0.1,3.4,0.7
			c1.5,1.1,0.7,2.1,0.2,3.2C592.4,159.4,592.7,159.9,592.3,160.3z"/>
		<path d="M312.6,156.2c-8.2,1.2-16.6,0.7-24.8,1.1c-9.4,0.4-18.7,0.2-28.1,0.7c-17.3,0.8-34.5,0.5-51.8,0.4c-3.6,0-7.3,0-10.9,0
			c-3.9-0.1-7.9,0.1-11.8-0.4c-4.3-0.6-8.7,0.3-13.1,0.4c-0.6,0-1.1,0.2-1.5,0.9c-0.6,1-2.6,1.5-3.3,1c-0.5-0.4-0.7-3.7-0.1-4.1
			c0.9-0.8,1.9-1.8,3.3-1c0.7,0.4,1.5,0.4,2.1,0.2c3-0.8,6-0.5,9-0.4c8.6,0.1,17.3-0.2,25.9,0.1c24.9,0.9,49.8,0.1,74.6,0.4
			C292.3,155.5,302.4,156.5,312.6,156.2z"/>
		<path d="M243.5,480.1c-0.4-2.3-0.4-4.5-0.1-6.6c0.2-1.4,0.3-2.7,0.2-4c-0.8-9.8-0.3-19.6-0.3-29.4c0-9.7,0.2-19.5,0.6-29.2
			c0.3-7.7,0.1-15.4,0.6-23.1c0.8-10.9,0.8-21.8,1-32.7c0.2-9.4,0.6-18.7,0.9-28.1c0.2-6.5,0.3-13.1,0.6-19.6
			c0.6-12.9,0.3-25.8,0.6-38.7c0-0.3-0.1-0.6,0-0.9c0.2-0.8-0.5-2.2,1-2.1c1.3,0.1,1,1.4,1,2.3c-0.1,12.3,0.1,24.6-0.3,36.9
			c-0.2,6.1-0.3,12.3-0.6,18.4c-0.3,7.8-0.7,15.6-1.1,23.3c-0.2,4.3-0.5,8.5-0.6,12.8c-0.1,7.4,0,14.8-0.3,22.2
			c-0.1,2.8,0.1,5.6,0.1,8.4c-0.2,8.4-0.2,16.9-0.7,25.3c-0.3,5.3,0,10.6-0.5,15.9c-0.5,4.9-0.8,9.8-0.6,14.6c0.2,6.4,0.3,12.7,0,19
			c-0.2,4.9-0.4,9.8-0.7,14.6C244.4,479.6,244.3,479.8,243.5,480.1z"/>
		<path d="M413.1,1056c-0.6,1.2-1.4,1-2,1c-3.1,0.2-6.2,0.5-9.3,0.6c-6.4,0.1-12.9,0.7-19.3,0.6c-11.8-0.1-23.6-0.3-35.3,0.2
			c-12.3,0.5-24.6,0.4-36.8,0.3c-10.9-0.2-21.8-0.2-32.7-0.6c-9.3-0.4-18.5-0.2-27.7-0.6c-8.4-0.4-16.8-0.5-25.1-1.6
			c-1.2-0.2-2.5-0.1-3.7-0.1c-0.3,0-0.6-0.1-0.7-0.5c-0.1-0.6,0.3-0.8,0.6-0.9c1.6-0.4,3.3-0.4,5-0.2c5.8,0.7,11.6,0.9,17.4,1.2
			c10.5,0.5,21,0.3,31.5,0.7c9.9,0.4,19.8,0.1,29.6,0.6c12.2,0.6,24.4,0.5,36.5,0.3c16-0.4,32.1-0.1,48.1-0.6
			c7.5-0.2,15-0.1,22.4-0.5C411.8,1055.9,412.3,1056,413.1,1056z"/>
		<path d="M127.1,1053.7c-0.9-1-0.8-1.7-0.8-2.3c-0.1-6.8,0-13.5-0.3-20.3c-0.4-11-0.3-22.1-0.7-33.1c-0.2-7.7-0.4-15.4-0.6-23.1
			c-0.3-12.2-0.8-24.3-1.2-36.5c-0.3-8.3-0.7-16.6-1.3-24.9c-0.3-4.2-0.2-8.3-0.3-12.5c-0.1-3,1-6,0.7-9c-0.1-0.7,0.2-1.2,1-1.3
			c0.7,0,1.1,0.3,1.3,1c0.2,1,0.3,2,0.1,3.1c-1.3,5.3-0.6,10.7-0.5,16.1c0.1,5,0.4,10,0.7,14.9c0.6,11,1,22,1.3,33
			c0.2,6,0.4,12.1,0.5,18.1c0.2,10.5,0.7,21,0.8,31.5c0,4.6,0.3,9.1,0.3,13.7c-0.1,9.8-0.4,19.7-0.6,29.5
			C127.4,1052.3,127.3,1052.8,127.1,1053.7z"/>
		<path d="M167.6,161.5c2-0.6,2.9-0.1,3,1.5c0.1,1.9,0.2,3.7,0.3,5.6c0.2,0.3,0.5,0.2,0.8,0.1c1-0.3,2-0.2,2.1,1
			c0.1,1.1-0.6,1.8-1.8,1.3c-0.9-0.3-1.1,0.1-1.1,0.9c0,0.7,0,1.5,0,2.2c0,20.2-0.3,40.4,0.1,60.6c0.4,19.9,0.1,39.8,0.3,59.7
			c0.5,38.4,0.1,76.9,0.2,115.3c0,0.9-0.1,1.9-0.2,2.8c-0.1,0.5-0.2,1.1-0.8,1.1c-0.8,0-0.5-0.7-0.5-1.1c0-5.9,0-11.7,0-17.6
			c0-22,0-43.9,0-65.9c0-22.1-0.1-44.1-0.1-66.2c0-20.2,0.1-40.4,0.1-60.7c0-10.8-0.3-21.6-0.4-32.4
			C169.4,167,169.1,164.2,167.6,161.5z"/>
		<path d="M592.1,161.5c-2.6,5.1-1.8,10.4-1.8,15.5c-0.2,19-0.3,38-0.3,56.9c0,22.1,0,44.1,0,66.2c0,22.1,0,44.1,0,66.2
			c0,14.7,0,29.4,0,44c0,0.8-0.1,1.6,0,2.5c0,0.5,0,0.9-0.5,0.9c-0.5,0-0.8-0.4-0.8-0.8c-0.1-1.2-0.3-2.5-0.3-3.7
			c0-32.8,0-65.6,0-98.5c0-22.5-0.2-45,0.3-67.4c0.5-25.9,0.1-51.9,0.3-77.8c0-0.8,0.1-1.7,0.2-2.5
			C589.2,161.4,590.2,160.9,592.1,161.5z"/>
		<path d="M663.1,1052.2c-0.7-4.9-0.8-9.5-1.1-14.1c-0.9-15.6-1-31.2-1.3-46.8c-0.2-9,0-18.1-0.6-27.1c-0.4-6.5,0.1-13.1-0.9-19.6
			c-0.1-0.6-0.1-1.2-0.1-1.9c-0.1-9.8,0-19.6-0.3-29.4c-0.2-5.6,0-11.2-0.1-16.8c-0.1-4.9-0.1-9.8-0.2-14.6c0-0.8-0.2-1.7,0.3-2.5
			c0.2-0.4,0.3-1,1-1c0.7,0.1,0.7,0.7,0.7,1.2c0,2.8,0.2,5.6,0,8.4c-0.2,2.9-0.2,5.8,0,8.7c0.7,9.8,0.4,19.6,0.7,29.3
			c0.2,5.3,0.5,10.6,0.2,15.9c-0.2,5.2-0.2,10.4,0.2,15.5c0.8,10.4,0.6,20.8,0.8,31.2c0,1.4-0.1,2.9,0,4.3
			c0.2,11.1,0.4,22.3,0.6,33.4c0.1,4.1,0.9,8.2,1.1,12.4c0.1,2.3-0.1,4.6-0.2,6.9c0,1.6-0.3,3.3,0,4.9
			C664.1,1051.1,664.1,1051.7,663.1,1052.2z"/>
		<path d="M174.5,1103.2c0.7-1.5,1.9-1.5,3-1.5c3.2-0.1,6.4,0.6,9.6,0.5c18-0.6,36-0.4,54-0.5c4.6,0,9.2,0.1,13.7-0.2
			c6.8-0.4,13.5-0.3,20.3-0.7c5.4-0.3,10.8-0.2,16.2-0.6c8.2-0.6,16.4-0.2,24.6-0.7c9.2-0.5,18.3-0.3,27.4-0.3
			c0.7,0,1.6-0.3,2.2,0.5c-0.2,0.5-0.5,0.5-0.8,0.5c-4.5-0.1-8.9,0.6-13.4,0.6c-11.3,0-22.7,0.7-34,0.8c-6.2,0.1-12.5,0.2-18.7,0.6
			c-6,0.4-12.1,0.2-18.1,0.6c-18.3,1-36.6,0.2-54.9,0.7c-7.4,0.2-14.8,0.3-22.1,0.3C180.6,1103.9,177.7,1103.5,174.5,1103.2z"/>
		<path d="M662.3,259.2c-0.9-0.8-0.8-1.3-0.8-1.7c0.2-11.5-1-23.1-0.6-34.6c0.3-10.3-0.1-20.6,0.3-30.9c0.5-16.8,0.7-33.5,0.5-50.3
			c-0.1-12.3-1-24.5-3.1-36.6c-1.3-7.2-2.6-14.5-4.4-21.6c-0.3-1.2-0.3-2.5-1.6-3.2c-0.6-0.3-0.4-0.9-0.1-1.3
			c0.4-0.5,0.9-0.5,1.4-0.3c1,0.3,1.2,1.3,1.6,2.1c1.9,5,2.5,10.3,3.5,15.5c1.2,5.8,2.2,11.6,3,17.5c0.6,4.3,0.7,8.7,1.1,13
			c1.1,13.6,0.3,27.2,0.3,40.9c0,5.3-0.2,10.6-0.3,15.9c-0.1,11,0,22.1-0.3,33.1c-0.2,5.5-0.4,11-0.3,16.5c0.1,4.3,0.6,8.7,0.2,13
			C662.3,250.4,662.5,254.6,662.3,259.2z"/>
		<path d="M157.9,117.7c-0.6-1.7-0.5-3.5-0.9-5.3c-1.5-6-1-12.2-0.9-18.3c0.1-5.5,0.5-11,1.4-16.4c0-0.3,0-0.7,0.1-0.9
			c0.5-0.8,0.3-2.5,1.5-2.4c1.6,0.1,0.7,1.7,0.7,2.5c-0.1,3.8-0.3,7.6-0.4,11.4c-0.1,2.7-0.2,2.7,2.6,2.7
			c17.1,0.1,34.2,0.2,51.3,0.2c8.8,0,17.5-0.1,26.3-0.2c7.8-0.1,15.6,0.8,23.4,0.8c0.4,0,0.8,0,1.2,0.9c-2,0-3.9,0.1-5.7,0.1
			c-8.1,0.1-16.2-0.3-24.4,0c-2.8,0.1-5.6,0-8.4,0c-14.8,0-29.6,0-44.4,0c-6.5,0-12.9-0.1-19.4-0.1c-2.6,0-2.9,0.2-2.9,2.8
			c-0.1,4,0,7.9,0,11.9c-0.1,3.4-0.2,6.8-0.3,10.2C158.4,117.6,158.2,117.6,157.9,117.7z"/>
		<path d="M465.3,564.6c6.2-0.4,12.5,0.7,18.7,0.4c1.4-0.1,2.7,0,3.8-1.5c0.8-1.2,2.3-1.1,3.2,0.1c0.8,1.3,1.8,1.4,3.1,1.5
			c8.5,0.5,17,0.3,25.6,0.7c8,0.3,16,0.2,24,0.6c6.1,0.3,12.3,0.1,18.4,0.5c0.1,0,0.2,0,0.3,0c0.9,0,2.2,0,2.1,1.2
			c-0.1,1.2-1.3,1.1-2.2,1.1c-5.9-0.4-11.8,0.1-17.8-0.5c-4.6-0.5-9.4-0.2-14-0.3c-10.2-0.2-20.4-0.4-30.5-0.7
			c-7.7-0.2-15.4-0.1-23.1-0.6c-6.3-0.4-12.7-0.2-19-0.5c-0.3,0-0.6,0-0.9-0.1c-0.7-0.1-1.5-0.4-1.5-1.3c0-1,0.9-1,1.6-1
			c1.9,0,3.7,0,5.6,0C463.4,564.5,464.4,564.5,465.3,564.6z"/>
		<path d="M249.9,568.1c-0.4,0-0.8,0-1.2,0c-10.7,0-21.4,0.5-32.1,0.8c-5.9,0.1-11.8,0.1-17.7,0.5c-0.7,0-1.5,0-2.2,0
			c-0.6-0.1-1.3-0.3-1.3-1.1c0-0.7,0.7-1.1,1.3-1.1c2.3-0.1,4.6-0.2,6.9-0.2c10.7,0,21.4-0.5,32.1-0.7c8-0.2,16-0.2,24-0.6
			c7.9-0.4,15.8-0.2,23.7-0.6c5.9-0.3,11.8-0.1,17.8-0.5c0.6,0,1.2,0,1.9,0c0.7,0,1.6,0,1.5,1.1c0,0.9-0.8,1.2-1.6,1.2
			c-1.5,0.1-2.9,0-4.4,0.1c-11,0.2-22,0.7-33,0.9C260.2,567.7,255.1,567.9,249.9,568.1z"/>
		<path d="M636.4,1101.6c-0.2-4.1-1-8-1.2-12c-0.6-11.3-0.8-22.7-0.4-34c0.3-8.2,0-16.4,0.3-24.7c0.3-8.3-0.3-16.7,0.3-25
			c0.5-6.9,0.4-13.7,0.5-20.6c0-3.3-0.2-6.6-0.4-10c0-0.7-0.1-1.4,0.7-1.4c0.7-0.1,1,0.7,1.1,1.3c0.2,2.3,0.8,4.5,0.7,6.8
			c-0.1,7.1-0.4,14.2-0.4,21.2c0,7.5,0.3,15,0.1,22.5c-0.5,16.7-0.6,33.3-0.5,50c0.1,5.6,0.1,11.2,0.3,16.8
			C637.7,1095.4,637.4,1098.6,636.4,1101.6z"/>
		<path d="M580.1,620.5c-0.7,1.1-1.8,0.7-2.6,0.7c-18,0.6-36,0.4-54,0.8c-11.4,0.2-22.9,0.1-34.3,0.6c-7.4,0.3-14.8,0.2-22.1,0.6
			c-6.9,0.4-13.7,0.4-20.6,0.5c-1.6,0-3.2,1.2-5.3-0.2c1.6-0.3,2.8-0.7,4-0.8c5.2-0.2,10.4-0.7,15.6-0.9c7.9-0.3,15.8-0.2,23.7-0.6
			c8.6-0.4,17.3-0.3,25.9-0.5c18.3-0.5,36.6-0.5,54.9-0.7c3.9,0,7.9-0.4,11.8-0.4C578.1,619.6,579.3,619.4,580.1,620.5z"/>
		<path d="M367.7,387.2c-1.3-2-1.4-4.3-1.8-6.5c-1-5.5-1.5-11.1-2.2-16.6c-1.5-11.5-1.8-23-1.6-34.5c0.1-4.5,0.3-9.1,1.1-13.6
			c0.7-3.9,0.9-7.8,1.1-11.8c0.4-9.2,1.7-18.2,3.2-27.2c0.9-5.4,2-10.8,2.1-16.3c0-3.2,0-6.4,0-9.6c0-0.4,0-0.9,0.4-1.1
			c0.6-0.2,1.1,0.3,1.2,0.7c0.2,0.6,0.3,1.2,0.2,1.8c-0.4,6.6-0.4,13.3-1.6,19.9c-1.2,6.3-1.7,12.7-2.7,19.1c-1,6.4-1,13-1.5,19.5
			c-0.9,9.9-1.5,19.9-1.2,29.9c0.2,7.2,0.2,14.4,1,21.5c0.5,4.4,0.9,8.9,1.4,13.3C367.2,379.4,367.7,383.3,367.7,387.2z"/>
		<path d="M618.7,189.1c-0.5-0.9-0.4-1.4-0.4-1.9c0.8-8.8,1.8-17.5,2.9-26.3c1.3-10.6,3.1-21.2,4.8-31.7c1.2-7.8,2.7-15.5,4-23.3
			c1.3-7.5,1.9-15.1,1.6-22.7c0-0.5,0.1-1.2-0.3-1.4c-2.3-1.1-0.4-2.2,0.1-3.2c0.4-0.8,1.2-0.8,1.9-0.6c0.8,0.2,0.8,0.9,0.8,1.5
			c0,6.5,0.2,13.1-0.7,19.6c-2.6,19.1-6.6,38-9.4,57.1c-1.3,8.8-2.2,17.7-4,26.4c-0.2,1.1-0.2,2.3-0.2,3.4
			C619.6,187,619.4,188,618.7,189.1z"/>
		<path d="M322.5,579c-0.9-0.9-0.6-1.9-0.6-2.8c0-10,0-20,0-30c0-30.2,0.5-60.5-0.1-90.7c-0.4-22.4-0.6-44.8-0.2-67.2
			c0.5-31.2,0-62.5,0.3-93.7c0-2.4,0-4.7,0.6-7.1C322.5,384.7,322.5,481.7,322.5,579z"/>
		<path d="M437.2,579c0-97.4,0-194.4,0-291.5c0.2,0,0.4,0,0.6,0c0,1.2,0,2.4,0,3.6c0,29.5-0.4,59,0.1,88.4c0.4,22.5,0.6,45,0.2,67.5
			c-0.4,25.2-0.1,50.3-0.3,75.5c0,6.1,0.3,12.3,0.2,18.4c-0.2,12.1-0.1,24.3-0.2,36.4C437.8,577.9,437.9,578.4,437.2,579z"/>
		<path d="M534.5,655c-4.5-0.1-8.9,1.3-13.4,0.1c-0.4-0.1-0.8,0-1.2,0c-8.8-0.1-17.7,0-26.5-0.2c-13.5-0.3-27-0.3-40.5-0.7
			c-10.1-0.3-20.1-0.6-30.2-0.4c-0.9,0-1.9,0-2.8,0.3c-0.5,0.2-1.1,0.1-1.2-0.5c-0.1-0.6,0.3-1,0.8-1.2c0.6-0.2,1.2-0.2,1.8-0.3
			c5.6-0.4,11.2-0.2,16.9-0.1c6.6,0.1,13.3,0.5,19.9,0.6c8.3,0.1,16.7-0.1,25,0.3c12.5,0.6,25,0.3,37.4,0.6
			c4.3,0.1,8.7,0.5,13.1,0.6C533.8,654,534.3,654,534.5,655z"/>
		<path d="M112.9,234.6c-1.3-0.9-1.1-2.1-0.9-3.1c0.4-2.7,0.1-5.4,0.1-8.1c0-3.3,0.2-6.6,0.3-10c0.2-6.5,0.8-13.1,0.9-19.6
			c0.1-6.3,0.7-12.6,1.1-18.9c0.5-8.7,1.1-17.4,1.4-26.1c0.3-6.1,0.6-12.2,0.6-18.4c0-2.9-0.1-5.8-0.2-8.7c-0.1-2.6,0.8-5,0.9-7.5
			c1.3,0.2,1.1,1.1,1.1,1.5c-0.9,5.3,0.1,10.6,0.1,15.9c0,8.9-0.2,17.8-0.7,26.7c-0.4,8-1.1,15.9-1.6,23.9
			c-0.4,7.2-0.5,14.3-0.9,21.5c-0.4,6.2-0.5,12.4-1.1,18.6C113.4,226.3,113.2,230.5,112.9,234.6z"/>
		<path d="M301.4,656.5c-0.7,1.1-1.5,1-2.2,1c-10.8,0.3-21.6,0.9-32.5,0.4c-10.8-0.5-21.6-0.4-32.5-0.5c-5.3-0.1-10.6-0.2-15.9,0.2
			c-7.8,0.5-15.6,0.3-23.3,1.2c-1.6,0.2-3.3,0.7-4.9,0.6c-0.5,0-1.1-0.1-1.1-0.8c0-0.4,0.4-0.7,0.9-0.8c1.4-0.2,2.9-0.6,4.3-0.7
			c5-0.3,9.9-0.7,14.9-0.9c11-0.3,22-0.7,33.1-0.6c7.2,0,14.4-0.2,21.6,0.3c10.8,0.7,21.6,0,32.5,0.5
			C297.9,656.6,299.5,656.5,301.4,656.5z"/>
		<path d="M276.6,626.9c-2.9-0.4-5.7,0.8-8.7,0.2c-0.7-0.2-1.4-0.1-2.2-0.1c-8.7-0.1-17.5-0.2-26.2-0.2c-14.1,0-28.3-0.7-42.4-0.8
			c-5.2,0-10.4-0.2-15.6-0.3c-1.4,0-2.9-0.3-3.8,1.3c-0.4,0.7-1.5,0.8-1.9,0.3c-1.2-1.5-2.8-1.1-4.3-1.3c-0.5-0.1-1-0.3-1.3-0.8
			c0-0.5,0.3-0.8,0.8-0.8c8.6-0.6,17.2-0.9,25.8-0.1c1.4,0.1,2.9,0,4.4,0.1c7.5,0.1,15-0.1,22.5,0.2c14.3,0.6,28.7,0.5,43,0.6
			c3.1,0,6.2,0.8,9.3,0.7C276.2,625.9,276.6,626.1,276.6,626.9z"/>
		<path d="M106.9,331.9c-0.3-0.3-0.5-0.4-0.5-0.6c0.1-4.4-0.6-8.7-0.6-13.1c-0.1-22.6,0-45.2-0.1-67.8c0-5.2-0.1-10.4-0.2-15.6
			c0-2-0.6-3.9-0.4-5.9c0.1-1,0.1-2.6,1.1-2.6c1.5,0.1,0.6,1.6,0.7,2.5c0.2,3.9,0.4,7.9,0.6,11.8c0.1,1.2,0.2,2.5,0.2,3.7
			c0,22.8,0,45.6,0,68.4c0,5.7-0.1,11.4-0.2,17.2C107.4,330.6,107.6,331.3,106.9,331.9z"/>
		<path d="M495,90.6c1-0.5,2-0.2,3-0.2c15.4,0,30.8-0.1,46.2,0c11.4,0,22.8,0.7,34.2,1.9c2.9,0.3,5.8,0.5,8.7,0.8
			c0.9,0.1,2.6,0.1,2.5,1.3c-0.2,1.3-1.7,0.7-2.6,0.6c-5.8-0.6-11.5-1.2-17.3-1.7c-20.7-1.9-41.6-1.1-62.3-1.2
			c-2.1,0-4.1-0.7-6.1-0.7c-2,0-4.1,0-6.1,0C495,91.1,495,90.9,495,90.6z"/>
		<path d="M600.2,1050.5c1,3,1.5,6,1.5,9.1c0,16.9,0,33.7,0,50.6c0,3.7-0.4,7.5-0.6,11.2c0,0.5-0.1,1.1-0.8,1
			c-0.5,0-0.6-0.5-0.7-0.9c-0.1-0.9-0.4-1.8-0.4-2.7c-0.5-20.3-0.1-40.6-0.2-60.9C598.9,1055.3,599.7,1052.9,600.2,1050.5z"/>
		<path d="M558.3,121.9c-1.6,0.1-3.2,0.3-4.8,0.3c-14.8,0.2-29.6,0.6-44.3,0.8c-5.8,0.1-11.7,0.5-17.5,0.2
			c-7.7-0.4-15.4-0.3-23.1-0.4c-0.4,0-0.8,0.1-1.1-0.5c0.7-0.9,1.7-0.5,2.5-0.5c10.7-0.1,21.5,0.1,32.2-0.3
			c12.2-0.4,24.4-0.2,36.5-0.6c3.9-0.1,7.9-0.3,11.8-0.4c2.6-0.1,5.2,0.2,7.7,0.7C558.2,121.4,558.2,121.7,558.3,121.9z"/>
		<path d="M374,543c-0.2-1.3-0.6-2.5-0.6-3.7c-0.1-7-0.9-13.9-0.7-20.9c0.3-10.1-0.5-20.2-0.9-30.2c-0.3-6.5-0.9-13-1.1-19.6
			c0-0.9-0.2-1.9,0.5-3.2c0.8,3.2,1,6.1,1.5,8.9c0.6,3.9,0.7,7.8,1.1,11.8c0.2,1.6-0.2,3.2,0,4.9c0.6,4.8,0.8,9.7,1.1,14.5
			c0.5,7.4,0.3,14.8,0.2,22.1c-0.1,4.1,0.7,8.2,0.1,12.4C375,541.1,375.4,542.3,374,543z"/>
		<path d="M213.3,430.2c-0.2-2.2-0.6-4.5-0.6-6.7c-0.1-8.2-1-16.4-0.7-24.6c0.4-9.2,0.6-18.5,1.6-27.7c0.8-6.7,1.4-13.4,2.1-20.1
			c0.4-3.9,0.9-7.8,1.3-11.8c0.1-0.5,0.1-1.1,0.8-1.2c0.9-0.1,1,0.7,1,1.3c-0.2,3-0.3,6-0.7,9c-1.3,9.1-2.1,18.3-3,27.5
			c-1.1,11.3-1.4,22.6-1.1,34c0.1,5.4-0.4,10.8,0.1,16.2c0.1,1.3,0,2.7,0,4C213.8,430.1,213.5,430.2,213.3,430.2z"/>
		<path d="M94.6,1025.7c-0.1-1-0.3-2-0.3-3c-0.3-9.2-1.3-18.4-1.4-27.7c-0.1-10.4-0.7-20.8-1.3-31.1c-0.2-3-0.3-6-0.5-9
			c-0.2-2.3-0.7-4.5-1.5-6.6c-0.3-0.7-0.5-1.4-0.7-2.1c-0.1-0.4,0-0.9,0.4-1.1c0.5-0.3,1,0,1.3,0.5c1.1,2,1.8,4.2,2,6.5
			c0.3,3.7,0.5,7.5,0.7,11.2c0.7,11.8,0.9,23.7,1.3,35.5c0.3,7.1,0.5,14.1,0.5,21.2C95.1,1021.8,96.1,1023.8,94.6,1025.7z"/>
		<path d="M305.9,115c2.6-0.2,5.3-0.7,7.9-0.7c5.9-0.1,11.9-0.4,17.8,0.1c6.7,0.5,13.5,0,20.2,0.9c1.1,0.2,2.3,0,3.4,0.1
			c7.1,0.5,14.3,1,21.4,1.5c0.2,0,0.3,0.2,0.7,0.5c-0.5,0.7-1.3,0.5-1.9,0.5c-8.7-0.9-17.4-0.2-26.1-1.2c-2-0.2-4,0-5.9-0.1
			c-9.7-0.4-19.3-0.8-29-0.6c-2.7,0.1-5.3,1-8-0.1c-0.2-0.1-0.4-0.2-0.5-0.3C305.9,115.4,305.9,115.2,305.9,115z"/>
		<path d="M621.6,1087.9c-0.2-2.5-0.5-5.1-0.6-7.6c-0.1-8.5-0.2-17.1-0.2-25.6c-0.1-9.6,0.8-19.1,1.8-28.6c0.1-1.2,0.1-2.5,0.2-3.7
			c0-0.4,0.1-0.9,0.7-0.8c0.5,0,0.6,0.5,0.7,0.9c0.2,1.6,0.6,3.3,0.4,4.9c-1.6,13.6-2,27.3-1.8,41.1c0.1,4.5,0.4,8.9,0,13.4
			c-0.2,2-0.4,4-0.6,6.1C622,1087.9,621.8,1087.9,621.6,1087.9z"/>
		<path d="M219.7,484.2c-0.3-5.4-0.5-10.7-0.3-16c0-0.7,0.2-1.5,0.1-2.2c-0.3-6.8,0.3-13.5,0.7-20.3c0.4-7.4,0.8-14.9,2.4-22.2
			c0.2-0.9,0.2-2.3,1.3-2.1c1.3,0.2,1,1.5,0.7,2.6c-2.2,9.9-2.4,20-2.8,30c-0.4,9.7-0.8,19.3-1.3,29
			C220.6,483.5,220.7,483.9,219.7,484.2z"/>
		<path d="M387,415.1c-0.9-0.6-0.7-1.4-0.7-2.1c-0.1-3.4,0.2-6.8-0.3-10.3c-0.2-1.4,0.3-2.9,0.3-4.3c0.1-11.4,2-22.7,4.1-33.9
			c0.3-1.7,1-3.4,1.5-5.1c0.3-1,0.9-1.6,2.3-2.1c-1,6.6-3.4,12.8-3.9,19.2c-0.5,6.4-1.4,12.7-1.8,19
			C388,402.1,386.8,408.6,387,415.1z"/>
		<path d="M642.6,683.4c-3.3,0.1-6-1.5-7.5-4.1c-1.7-3.2-3.1-6.6-1.7-10.6c1-2.9,1.2-6.1,1.7-9.1c0.4-2.3,0.8-4.7,1.2-7
			c0.1-0.6,0-1.4,0.9-1.2c0.7,0.1,0.6,0.8,0.6,1.2c-0.1,2.6,0,5.2-0.4,7.8c-0.7,4.2-0.8,8.4-1,12.7c-0.1,2.1,0.5,4.1,2,5.7
			C639.9,680.2,641.1,681.8,642.6,683.4z"/>
		<path d="M529.4,106.5c2-0.9,4.3-0.7,6.5-0.9c7.8-0.8,15.7-1.4,23.5-1.9c3.1-0.2,6.2,0.6,9.3,0.4c0.4,0,0.9,0.1,0.9,0.6
			c0,0.6-0.4,0.9-1,1c-0.2,0-0.4,0.1-0.6,0.1c-5.5-0.3-11,0.8-16.5,0.9c-4.2,0.1-8.5,0.6-12.7,0.6c-3.1-0.1-6.3,0-9.4,0
			C529.4,107,529.4,106.8,529.4,106.5z"/>
		<path d="M421.2,1088.7c15.5-1.1,30.2-0.6,45.6,1.3c-1.8,1.1-3.2,0.9-4.4,0.7c-6.3-0.7-12.7-0.5-19-0.5c-2.7,0-5.4-0.7-8.1-0.5
			c-3.4,0.2-6.8,0.7-10.3,0.5C423.9,1090.1,422.7,1090.3,421.2,1088.7z"/>
		<path d="M361.7,623.4c-0.8,0.5-1.9,0.2-3,0.2c-9.2,0-18.3,0-27.5,0c-3,0-6,0-9,0.6c-0.5,0.1-1,0.1-1.6,0.1c-0.4,0-0.8-0.2-0.9-0.7
			c0-0.4,0.3-0.9,0.7-0.9c1.2-0.3,2.4-0.5,3.7-0.6c5.1-0.4,10.2-0.1,15.3-0.2c2.7,0,5.4,0.1,8.1,0c4.7-0.2,9.3,0.9,14,0.8
			C361.8,622.6,361.9,622.8,361.7,623.4z"/>
		<path d="M461.3,175.7c-0.8,0.5-1.5,0.4-2.1-0.1c-5.1-3.8-10.3-7.6-15.4-11.5c-0.4-0.3-0.9-0.6-1-1.2c-0.1-0.5-0.1-1,0.3-1.5
			c0.4-0.5,0.9-0.5,1.4-0.3c0.7,0.4,1.5,0.8,2.1,1.3c4,3,7.9,6,11.9,9C460,172.6,461,173.9,461.3,175.7z"/>
		<path d="M298.4,175.7c0.3-1.9,1.3-3.2,2.8-4.3c4.2-3.1,8.3-6.2,12.4-9.3c0.9-0.6,1.8-1.7,3-0.6c0.8,0.8,0.3,1.8-1.3,3
			c-4.8,3.6-9.7,7.1-14.5,10.7C300.2,175.7,299.6,176.2,298.4,175.7z"/>
		<path d="M496.1,609.9c-2,0.3-4-0.1-5.9-0.2c-0.6,0-1.2-0.3-1.8-0.3c-7,0.4-14-0.8-21-1.2c-2.4-0.2-4.8-0.1-7.2-0.2
			c-0.6,0-1.3-0.2-1.3-1c0.1-0.6,0.7-0.7,1.2-0.7c2.6,0.1,5.2-0.1,7.8,0.3c4.4,0.5,8.9,0.5,13.3,1c4.7,0.5,9.5,1,14.2,1.5
			C495.7,609.1,496.1,609.2,496.1,609.9z"/>
		<path d="M321.9,245.4c0-1.4,0-2.9,0-4.3c0-12.9-0.2-25.8,0-38.7c0.2-11.2,0.1-22.5,0.2-33.7c0-1.8,0.3-3.6,1-5.4
			c-0.3,27.3-0.4,54.7-0.5,82C322.3,245.3,322.1,245.3,321.9,245.4z"/>
		<path d="M436.6,163.2c0.9,1.3,0.7,2.9,1,4.4c0.1,0.3,0,0.6,0,0.9c0.1,24.6,0.1,49.1,0.2,73.7c0,1,0,2-0.3,3.1
			C437,217.9,437,190.6,436.6,163.2z"/>
		<path d="M203,643.8c-0.5,0.6-0.9,0.6-1.3,0.6c-8.1,0-16.2,0.7-24.3,0.5c-2.8-0.1-5.6-0.1-8.4,0.6c-0.4,0.1-0.8,0.1-1.2,0.1
			c-0.5,0-1.2,0.1-1.2-0.6c-0.1-0.7,0.4-1.1,1.1-1.2c0.9-0.2,1.8-0.4,2.8-0.4c7.7-0.3,15.4-0.3,23.1-0.1c2.2,0.1,4.4,0,6.6,0.1
			C200.9,643.4,201.9,643.2,203,643.8z"/>
		<path d="M675.3,1087.4c-1.5-4.1-3.6-30.6-2.9-36c0.9-0.1,1,0.5,1.1,1.1c0.4,3.9,1.1,7.8,1,11.7c-0.1,4.1,1.1,8.2,0.9,12.4
			C675.4,1080.1,676.4,1083.6,675.3,1087.4z"/>
		<path d="M98,231c-2.3,14.1-2.1,28.3-3,42.6c-0.6-0.7-0.2-0.3-0.6-0.3c-0.1,0-0.2,0-0.2-0.1c-0.1-0.3-0.3-0.6-0.3-0.9
			c0.1-13.6-0.1-27.1,2.9-40.5C96.8,231.5,96.9,231.1,98,231z"/>
		<path d="M475.6,158.5c-1.1,0.5-1.9,0.4-2.7,0.4c-8.9,0.3-17.8,0.5-26.7,0.8c-1,0-2.1,0-3.1,0c-0.8,0-1.5-0.4-1.5-1.2
			c-0.1-1.1,0.8-1.1,1.5-1.1c2,0,4-0.2,5.9,0c7.9,0.7,15.7,0.5,23.6,0.6C473.5,158.1,474.5,157.9,475.6,158.5z"/>
		<path d="M284.2,158.7c0.8-0.8,1.4-0.6,2-0.6c6-0.1,12-0.2,18.1-0.2c3.6,0,7.2-0.8,10.9-0.5c0.6,0.1,1.2,0,1.9,0.1
			c0.6,0,1,0.2,1.1,0.9c0,0.7-0.4,1.2-1.1,1.3c-0.8,0.1-1.7,0.1-2.5,0.1c-9.7,0-19.5-0.9-29.2-0.8
			C285.1,158.9,284.8,158.8,284.2,158.7z"/>
		<path d="M551.9,1028.8c2.2-0.3,4.4-0.8,6.6-0.8c6.3-0.2,12.7-0.2,19-0.2c1.5,0,2.9-0.3,4.3-0.4c0.6,0,1.3,0.2,1.3,0.9
			c0,0.7-0.7,0.6-1.2,0.8c-0.7,0.3-1.4,0.4-2.1,0.4c-8.9,0-17.8,0.1-26.8,0.1c-0.4,0-0.8-0.1-1.2-0.1
			C552,1029.3,551.9,1029.1,551.9,1028.8z"/>
		<path d="M694,265.1c0.3-3.9,0.4-7.8,0.9-11.6c0.6-4.7,1.2-9.5,1.5-14.2c0-0.2,0-0.4,0-0.6c0.1-0.5-0.1-1.1,0.6-1.2
			c0.8-0.1,1.2,0.5,1.2,1.1c0.1,2.4,0.2,4.7,0,7.1c-0.2,3.2-0.6,6.4-1.1,9.6c-0.6,3.4-1.5,6.7-2.3,10.1
			C694.6,265.2,694.3,265.2,694,265.1z"/>
		<path d="M651.1,294.6c-0.9-5.1-1.9-10.2-2.5-15.3c-0.6-4.8-1.4-9.7-2.4-14.4c-0.2-0.9-1-2.4,0.3-2.8c1.6-0.5,1.6,1.4,1.8,2.3
			c0.7,3.5,0.9,7,1.6,10.4c1.3,6.1,1.1,12.4,2.2,18.5c0.1,0.4,0.1,0.9-0.3,1.2C651.7,294.6,651.4,294.6,651.1,294.6z"/>
		<path d="M457.5,639.7c-2.3,0.1-4.6,0.3-7,0.3c-6,0-12,0-18,1.2c-0.5,0.1-1.4,0.3-1.5-0.5c-0.2-1,0.7-1.1,1.4-1.3
			c2.8-0.7,5.8-0.7,8.6-1c5.5-0.5,11,0.4,16.5,0.5C457.5,639.2,457.5,639.4,457.5,639.7z"/>
		<path d="M88.3,88.4c-1.2-0.3-2.2-1-2.1-2.3c0.2-1.3-0.1-2-1.1-2.9c-1-0.9-0.9-2.4,0-3.3c1-0.9,2.2-1.3,3.4-0.5
			c0.8,0.6,1.5,1.3,2.4,1.8c0.7,0.4,0.6,1.5-0.1,1.7c-1.9,0.5-0.8,1-0.4,1.9C91.5,87,90,88.2,88.3,88.4z"/>
		<path d="M226.2,1087.1c2.8-1.4,19.6-1.3,25-0.1C248.8,1088,229.5,1088.2,226.2,1087.1z"/>
		<path d="M346.5,586c-1.4,1.6-3.2,1.6-4.8,2c-0.9,0.2-1.9-0.2-2.5,1.2c-0.4,0.8-4.8,0.3-5.5-0.5c-1-1.1-0.3-2.6,1.5-2.9
			c2.1-0.4,4.3-0.6,6.5-0.8C343.3,584.9,344.9,585.1,346.5,586z"/>
		<path d="M347.6,179.4c-0.1-4.7-0.8-9.4-0.5-14.2c0.2-2.3,0.4-4.7,0.5-7c0-1.1,0.5-2,1.1-2.8c0.2-0.4,0.6-0.6,1-0.5
			c0.5,0.2,0.8,0.5,0.7,1.2c-0.3,1.6-0.5,3.3-0.8,4.9c-0.8,3.9-0.6,7.8-0.8,11.7c-0.2,2.2-0.4,4.5-0.5,6.7
			C348.1,179.4,347.8,179.4,347.6,179.4z"/>
		<path d="M584.9,686.8c-0.2,0-0.4-0.1-0.6-0.1c-2.2-0.6-3.7-5.9-2.1-7.6c1.3-1.3,3.3-1.1,4,0.7c0.4,1,0.8,2,1.3,3
			C588.4,684.7,586.9,686.8,584.9,686.8z"/>
		<path d="M85.1,614.6c0,0,0,0.4-0.1,0.6c-0.2,0.5-0.5,1.3-0.7,1.3c-2.6,0-3.1,3-5.3,3.4c-1.2,0.2-1.7-0.7-2-1.6
			c-0.3-0.9,0.1-1.8,0.9-2c1.4-0.5,2.1-1.2,2.2-2.8c0.1-1.5,1.6-2.2,3-1.9C84.5,612,85.2,612.9,85.1,614.6z"/>
		<path d="M320,578c-4.7-2.4-7.4-6.3-10.7-9.5c-0.6-0.6-0.9-1.3-1.7-1.8c-0.5-0.3-0.6-0.9-0.3-1.3c0.3-0.5,0.9-0.5,1.4-0.3
			c0.6,0.2,1,0.7,1.5,1.1c2.9,2.9,5.4,6.2,8.7,8.8C319.6,575.6,319.8,576.6,320,578z"/>
		<path d="M439.8,577.9c0.1-1.3,0.4-2.3,1.2-2.9c3.1-2.5,5.6-5.5,8.3-8.4c0.3-0.3,0.6-0.6,0.9-0.9c0.7-0.6,1.5-1,2.2-0.3
			c0.9,0.9-0.3,1.3-0.7,1.9c-2.3,2.8-5,5.2-7.5,7.8C442.9,576.3,441.6,577.1,439.8,577.9z"/>
		<path d="M693,81.6c-1.4-0.1-2.2-0.8-2.6-1.8c-0.4-1.1-0.3-2.3,0.8-3c0.9-0.6,2-1.1,2.9-1.6c1.2-0.7,2.3-0.3,3.1,0.6
			c0.8,0.9,1,2.2,0.2,3.2C696.3,80.4,694.4,80.8,693,81.6z"/>
		<path d="M78.9,86c-1.2-0.1-2.2-0.3-1.6-1.6c0.3-0.8-0.2-0.8-0.5-1.1c-0.7-0.6-1.3-1.4-0.6-2.4c0.8-1.1,1.9-1.3,2.9-0.5
			c0.7,0.6,1.4,0.6,2.3,0.6c1.3,0.1,2.1,0.9,2.3,2.1c0.2,1-1.1,2.3-2.3,2.6c-0.1,0-0.2,0.1-0.3,0C80.2,85.3,79.4,85.6,78.9,86z"/>
		<path d="M693.4,100.2c-1-0.1-2.1-0.5-2.4-1.8c-0.3-1.2-0.1-2.3,1.1-2.9c1-0.5,2.5-0.5,1.7-2.4c-0.2-0.5,0.7-1.5,1.7-1.4
			c0.8,0,1.5,0.1,1.8,0.9c0.3,0.8,0.3,1.7-0.5,2.2c-0.9,0.6-1.1,1.1-0.8,2.2C696.4,98.5,695.1,100.1,693.4,100.2z"/>
		<path d="M107.9,1061.5c0.7,8.5,1.6,16.2,1.4,24.1c-0.6,0.2-1-0.1-1-0.5c0-6.7-1.9-13.2-1.6-19.9
			C106.8,1064.2,106.5,1063,107.9,1061.5z"/>
		<path d="M565.7,1072.2c6.2-0.9,12.3-1.9,18.6-1.7c0.8,0,1.6,0,2,1C584.4,1072.3,568.7,1073,565.7,1072.2z"/>
		<path d="M123.5,89.4c1.5,8.2-0.6,16.3-1.8,24.7c-0.4-0.6-0.1-0.1-0.5-0.3c-0.1,0-0.2-0.1-0.2-0.2c-0.1-0.1-0.2-0.2-0.2-0.3
			c1-7.9,1.4-15.9,1.9-23.8C122.7,89.3,122.9,89.2,123.5,89.4z"/>
		<path d="M180.8,110.2c3.2-1.9,14.8-1.8,18.9,0.1C193,110.4,186.9,111,180.8,110.2z"/>
		<path d="M234.9,465.4c-1.6-1.8-1.2-4.1-1.4-5.9c-0.5-4.2-0.5-8.5,0.2-12.7c0.1-0.5,0.2-1.1,0.8-1.1c0.7,0,0.7,0.7,0.7,1.1
			c0,1.7-0.2,3.3-0.2,5c0,4,0.1,8.1,0.2,12.1C235.2,464.3,235.2,464.8,234.9,465.4z"/>
		<path d="M330,1019.5c-0.1,1.7-2.2,3.8-3.7,3.7c-1.3-0.1-3-2-2.9-3.2c0-1.6,1.8-2.9,3.8-2.8C328.9,1017.2,330.1,1018.2,330,1019.5z
			"/>
		<path d="M271.2,642.1c-5.4,0.3-10.8,0.5-16.1-0.2c-0.5-0.1-1.1-0.2-1-0.8c0.1-0.4,0.5-0.7,0.9-0.7c0.2,0,0.4-0.1,0.6-0.1
			c3.9,0.5,7.8,0,11.7,0.9C268.6,641.4,270.1,640.8,271.2,642.1z"/>
		<path d="M642.7,186.7c-0.7-7.1-2.7-14-1.7-21.3C642.4,167.9,643.8,183.4,642.7,186.7z"/>
		<path d="M590.2,622.4c0,1.8-0.9,3-2.3,3.1c-1.5,0.1-3.3-1.5-3.3-3c-0.1-1.6,1.2-2.9,2.9-3C589.2,619.4,590.2,620.5,590.2,622.4z"
			/>
		<path d="M96.4,678.4c5.4-0.1,15,1.2,17,2.4C107.7,680,101.7,681.7,96.4,678.4z"/>
		<path d="M580.3,667.6c1.8,0.1,3.1,1.3,3,2.8c-0.1,1.6-1.6,2.8-3.1,2.7c-1.4-0.1-3-1.8-2.9-3.1
			C577.3,668.8,578.8,667.5,580.3,667.6z"/>
		<path d="M559.9,559.2c-0.7-0.6-1.7,0.4-2.3-0.4c-0.7-1.1-1.4-2.3-1.8-3.5c-0.3-0.9,0.9-1.8,1.9-1.3c0.8,0.4,1.3,1,2.5,0.7
			c1.1-0.3,2.5,1.4,2.5,2.6C562.6,558.4,561.3,559.2,559.9,559.2z"/>
		<path d="M98.7,87.1c0.1,1.5-1.3,3-2.8,3.1c-1.6,0.1-3-0.9-3.2-2.3c-0.1-1.4,1.5-3,3.3-3.1C97.3,84.7,98.6,85.8,98.7,87.1z"/>
		<path d="M429,684.9c-0.1,1.4-1.2,2.5-2.7,2.5c-1.8,0-3.2-1.3-3.1-2.8c0.1-1.1,2-2.4,3.2-2.3C427.9,682.4,429.1,683.6,429,684.9z"
			/>
		<path d="M193.5,1025.8c-3.6,0-7.1,0-10.6,0c-0.5,0-1-0.1-1.5-0.3c-0.5-0.2-0.8-0.6-0.6-1.2c0.1-0.4,0.5-0.9,0.9-0.7
			c3.6,1.4,7.4,0.1,11,1.1C193,1024.7,193.4,1024.9,193.5,1025.8z"/>
		<path d="M595.2,601.1c0,1.3-1.6,2.7-2.9,2.6c-1.2-0.1-2.6-1.4-2.6-2.6c0-1.5,1.3-2.8,2.7-2.8C593.7,598.4,595.2,599.9,595.2,601.1
			z"/>
		<path d="M695.6,86.8c-0.3-0.8-0.4-1.6-0.3-2.4c0.2-1.7,1.5-2.7,3-2.4c1.4,0.3,2.4,1.7,2.2,3.3c-0.1,1.5-1.4,2.6-3,2.3
			C696.8,87.5,696.2,87.1,695.6,86.8L695.6,86.8z"/>
		<path d="M80.9,113.2c-1,0-2.6-1.8-2.6-2.8c0-1.2,1.8-2.6,3.1-2.6c1.3,0.1,2.3,1.1,2.3,2.4C83.6,111.5,81.9,113.3,80.9,113.2z"/>
		<path d="M502.6,551.4c-0.1,1.4-1.4,2.4-2.8,2.3c-1.3-0.1-2.6-1.4-2.6-2.7c0-1.2,1.5-2.7,2.7-2.6
			C501.2,548.4,502.7,550.1,502.6,551.4z"/>
		<path d="M84,658.8c-1.5,0-2.7-1.1-2.6-2.4c0-1.4,1.5-2.6,3-2.5c1.4,0.1,2.5,1.3,2.4,2.7C86.7,657.9,85.6,658.8,84,658.8z"/>
		<path d="M79.6,98.5c1.3,0.1,2.2,1.2,2.2,2.5c-0.1,1.6-1.9,3.2-3.3,3.1c-1.1-0.1-1.8-1.1-1.7-2.5C76.9,99.9,78.3,98.4,79.6,98.5z"
			/>
		<path d="M683.6,87.3c-0.1,1.7-0.8,2.4-2.4,2.4c-1.6,0-2.7-1.2-2.6-2.7c0.1-1.3,1.4-2.6,2.6-2.6C682.7,84.4,683.7,85.5,683.6,87.3z
			"/>
		<path d="M170.2,138.2c0,1.3-1.1,2.5-2.3,2.5c-1.2,0-2.7-1.6-2.8-2.9c0-1.3,1.1-2.4,2.4-2.4C168.9,135.4,170.2,136.7,170.2,138.2z"
			/>
		<path d="M641.1,635.9c0.1-0.3-0.8-0.9-0.8-1.7c-0.1-0.9,0.2-1.6,1-2c0.7-0.3,1.4-0.3,2,0.2c0.7,0.5,1.1,1.2,0.8,2.1
			c-0.2,0.6-0.9,1.1-0.6,2c0.5,1.3,0.2,2.4-1.3,2.4C640.7,638.8,640.1,637.9,641.1,635.9z"/>
		<path d="M201.9,535.9c1.4,0,2.5,1.3,2.4,2.7c0,1.2-1.2,2.4-2.4,2.4c-1.4,0-2.6-1.1-2.6-2.5C199.3,537.2,200.6,535.9,201.9,535.9z"
			/>
		<path d="M76.8,121c-1.6,0-2.5-0.9-2.6-2.4c-0.1-1.5,0.9-2.6,2.4-2.6c1.5,0,2.5,1,2.6,2.4C79.4,119.9,78.3,120.9,76.8,121z"/>
		<path d="M377.1,497.1c0.1-5.3-0.2-10.2,2.3-15c1.5,1.9-0.2,3.4-0.2,5c0,1.6-0.3,3.3-0.7,4.9C378.1,493.6,378.9,495.5,377.1,497.1z
			"/>
		<path d="M691,103.5c1.7,0,2.6,0.6,2.6,1.9c0,1.6-1,2.5-2.8,2.5c-1.5,0-2.7-0.8-2.7-1.9C687.9,104.6,689.3,103.5,691,103.5z"/>
		<path d="M421,582.9c0.1,1.3-0.5,2.4-1.9,3.1c-1,0.5-2.1,0-2.4-1.1c-0.2-0.9,0.7-3.7,1.5-4.2c0.5-0.4,1.1-0.6,1.7-0.3
			C420.6,580.6,421,581.5,421,582.9z"/>
		<path d="M279,609.1c0,1.4-1.1,2.6-2.5,2.6c-1.3-0.1-2.6-1.4-2.5-2.7c0.1-1.1,1.4-2.4,2.5-2.5C277.9,606.5,279,607.6,279,609.1z"/>
		<path d="M656.5,715.1c0.1,1.2-1.3,2.8-2.4,2.8c-1.1,0-2.3-1.2-2.4-2.4c-0.1-1.5,0.8-2.7,2.3-2.7
			C655.2,712.8,656.4,713.9,656.5,715.1z"/>
		<path d="M102.1,593.8c-1.5,0-2.6-1.1-2.6-2.5c0-1.2,1.5-2.5,2.7-2.5c1.4,0.1,2.2,1,2.3,2.4C104.6,592.8,103.7,593.8,102.1,593.8z"
			/>
		<path d="M172.2,620.6c-1.3-0.1-2.3-1.2-2.3-2.5c0-1.3,1.4-2.6,2.7-2.5c1.3,0.1,2.3,1.3,2.3,2.6
			C174.9,619.7,173.7,620.7,172.2,620.6z"/>
		<path d="M599.2,143.1c0,1.4-1.1,2.6-2.4,2.7c-1.2,0-2.7-1.4-2.6-2.5c0-1.2,1.5-2.6,2.7-2.5C598.1,140.7,599.2,141.9,599.2,143.1z"
			/>
		<path d="M131.7,1112.4c-1.5-4.6-1.4-9.2-0.6-13.8C133.7,1103.2,131.4,1107.9,131.7,1112.4z"/>
		<path d="M471.9,675c-3.9,0.6-7.7,1.1-11.6,0.4C464.1,672.9,468.1,674.6,471.9,675z"/>
		<path d="M413.2,566.9c1.2,0,2.4,1.1,2.5,2.3c0.1,1.4-1,2.6-2.4,2.6c-1.2,0-2.5-1-2.6-2.2C410.6,568.3,411.9,567,413.2,566.9z"/>
		<path d="M103.7,605.3c-1,0-2.3-1.5-2.3-2.5c0.1-1,1.5-2.4,2.5-2.4c1.2-0.1,2.4,1.2,2.4,2.3C106.3,603.7,104.7,605.3,103.7,605.3z"
			/>
		<path d="M685.2,647.1c-0.1,1.2-1.5,2.4-2.8,2.3c-1.2-0.1-2.3-1.3-2.2-2.6c0.1-1.2,1.3-2.2,2.6-2.2
			C683.9,644.7,685.3,646.1,685.2,647.1z"/>
		<path d="M184,604.7c1.3,0,2.4,1,2.4,2.3c0,1.3-1.2,2.7-2.4,2.7c-1,0-2.2-1.3-2.2-2.6C181.8,605.9,182.8,604.7,184,604.7z"/>
		<path d="M359.3,1011.9c-1.1-0.1-2.3-1.5-2.2-2.7c0.1-1.1,1.2-2.1,2.4-2c1.3,0,2.5,1.3,2.4,2.4
			C361.8,1010.6,360.3,1011.9,359.3,1011.9z"/>
		<path d="M109.9,653.6c0,1.1-1.4,2.4-2.4,2.4c-1.3,0-2.5-1.4-2.3-2.8c0.2-1.3,1-2,2.3-2C108.8,651.3,109.9,652.4,109.9,653.6z"/>
		<path d="M669.6,107.9c0.1,1-1.2,2.3-2.3,2.4c-1.2,0.1-2.4-0.9-2.6-2.1c-0.1-1.2,0.8-2.4,2.1-2.6
			C668,105.5,669.5,106.7,669.6,107.9z"/>
		<path d="M552.4,1044.3c-0.1-1.2,0.6-1.7,1.3-2c2.4-1,5-0.9,7.6-0.5c0.4,0.1,0.7,0.5,0.6,0.9c0,0.5-0.4,0.6-0.8,0.7
			c-1.5,0.1-3.1-0.4-4.6,0.1C555.2,1043.9,553.9,1044.3,552.4,1044.3z"/>
		<path d="M569.2,686.5c0,1.2-1.1,2.3-2.4,2.3c-1.1,0-2.6-1.2-2.6-2.2c-0.1-1,1.5-2.5,2.7-2.5C568.1,684.1,569.2,685.2,569.2,686.5z
			"/>
		<path d="M348.8,1020.9c1.2,0,2.4,1.2,2.4,2.3c0,1-1.5,2.4-2.5,2.3c-1.2-0.2-2.1-0.9-2.2-2.2
			C346.4,1022.1,347.6,1020.9,348.8,1020.9z"/>
		<path d="M177.2,600.3c1.2,0.1,2.2,1.1,2.1,2.2c-0.1,1.2-1.7,2.5-3.1,2.5c-1.1,0-1.7-0.7-1.7-1.8
			C174.6,601.8,176.1,600.2,177.2,600.3z"/>
		<path d="M652.6,1101.8c-1.3-0.5-1.3-1.7-1.4-2.6c-0.3-1.8-0.5-3.7-0.3-5.6c0.1-0.4,0.2-0.8,0.7-0.9c0.5-0.1,0.8,0.3,0.9,0.7
			C653.4,1096.2,654,1099,652.6,1101.8z"/>
		<path d="M201.4,205.7c-1,0-2.1-1.2-2.1-2.3c0-1.3,1-2.4,2.3-2.4c1.4,0,2.4,1,2.3,2.3C203.8,204.7,202.6,205.8,201.4,205.7z"/>
		<path d="M421.1,607.9c-1.1,0.1-2.3-1.2-2.3-2.4c0-1.3,0.7-2.1,2-2.3c1.3-0.2,2.5,0.7,2.6,2C423.6,606.5,422.5,607.8,421.1,607.9z"
			/>
		<path d="M75.1,114c0,1.5-1.1,2.7-2.4,2.6c-1.1-0.1-2-1.2-2-2.3c0-1.3,1.3-2.6,2.6-2.6C74.5,111.7,75.2,112.5,75.1,114z"/>
		<path d="M681.9,673.5c-1.1,0-2.3-1.3-2.3-2.5c0-1.4,0.7-2.1,2.1-2.2c1.3,0,2.5,1,2.5,2.2C684.3,672.2,683,673.5,681.9,673.5z"/>
		<path d="M174.5,130.4c1.3,0,2.5,1.1,2.4,2.3c-0.1,1.2-1,2-2.3,2c-1.2,0-2.4-0.9-2.4-1.9C172,131.6,173.3,130.4,174.5,130.4z"/>
		<path d="M346.8,1010.6c0,1.1-1.3,2.4-2.5,2.4c-1,0-2.1-1.2-2.2-2.2c-0.1-1.2,1.1-2.3,2.4-2.3
			C345.7,1008.5,346.8,1009.6,346.8,1010.6z"/>
		<path d="M294,522.1c1.4,0.1,2.6,1.2,2.5,2.3c-0.1,1.1-1.4,2-2.8,1.8c-1.2-0.1-2.2-1.1-2.1-2.2C291.6,522.9,292.7,522,294,522.1z"
			/>
		<path d="M347.2,676c-3.8,0.5-7.2,1.5-10.9,0C338.7,674.7,344,674.7,347.2,676z"/>
		<path d="M365.9,157.3c-0.1,1.1-0.1,2.3-0.2,3.4c0,0.4,0.2,0.9-0.4,1c-0.5,0.1-0.7-0.3-0.8-0.8c-0.3-2.6-0.6-5.3-1-7.9
			c-0.1-0.5-0.3-1,0.4-1.3c0.7-0.2,1.3,0,1.5,0.7c0.2,0.8,0.3,1.6,0.4,2.4C365.9,155.7,365.8,156.5,365.9,157.3
			C365.9,157.3,365.9,157.3,365.9,157.3z"/>
		<path d="M596.1,665.4c0,1.3-1,2.3-2.4,2.3c-1.2,0-2.3-1.2-2.3-2.4c0-1.2,1-2.1,2.2-2.1C595,663.2,596.1,664.1,596.1,665.4z"/>
		<path d="M169.1,1041.6c3.1-0.8,6.3-0.9,9.4,0C175.3,1042.9,172.2,1043,169.1,1041.6z"/>
		<path d="M112.7,96.3c1.2,0,2.5,1.2,2.4,2.3c0,1-1.2,2.2-2.2,2.3c-1.2,0.1-2.4-1.1-2.4-2.4C110.5,97.4,111.6,96.3,112.7,96.3z"/>
		<path d="M404.8,692.5c-1.2-0.1-2.3-1.4-2.2-2.6c0.1-1.1,1.3-2.1,2.3-2.1c1.2,0,2.3,1.2,2.3,2.4C407.2,691.5,406,692.6,404.8,692.5
			z"/>
		<path d="M203.9,169.9c0,1.1-1.3,2.4-2.4,2.3c-1,0-2.1-1.1-2.2-2.2c-0.1-1.2,1-2.4,2.2-2.5C202.7,167.5,203.9,168.7,203.9,169.9z"
			/>
		<path d="M183,124.9c0,0.9-1.7,2.3-2.6,2.3c-0.9-0.1-2.1-1.5-2.1-2.4c0-1,1.2-2.2,2.2-2.2C181.5,122.5,183.1,123.9,183,124.9z"/>
		<path d="M79.3,143.4c0,1-1.3,2-2.4,2c-1.2,0-2.5-1.2-2.4-2.4c0.1-1.2,0.7-1.9,2-1.9C77.8,141,79.3,142.2,79.3,143.4z"/>
		<path d="M389.5,683.3c0,1.1-0.9,2.2-2.2,2.2c-1.1,0-2.2-1.1-2.2-2.2c0-1.2,1.3-2.4,2.4-2.3C388.6,681.2,389.5,681.7,389.5,683.3z"
			/>
		<path d="M419.3,554.7c1.2,0.1,2.4,1.4,2.3,2.5c-0.1,1-1.4,2.2-2.4,2.1c-1.1-0.1-2.3-1.4-2.2-2.6
			C417,555.7,418.2,554.6,419.3,554.7z"/>
		<path d="M653.6,104.7c-0.2,1-0.7,1.7-2,1.8c-1.3,0.1-2.8-1.4-2.6-2.5c0.2-1.1,1-1.8,2.2-1.8C652.6,102.3,653.6,103.3,653.6,104.7z
			"/>
		<path d="M325.8,1006.8c1-0.1,2.3,1,2.4,2.1c0.1,1.2-0.8,2.3-2,2.4c-1,0.1-2.3-0.9-2.4-2C323.7,1008.3,324.8,1006.9,325.8,1006.8z"
			/>
		<path d="M200.1,1012.7c0,1.1-1.1,2.3-2.1,2.3c-1.1,0-2.3-1.1-2.3-2.1c0-1.1,1.1-2.3,2.2-2.3
			C198.9,1010.6,200.1,1011.6,200.1,1012.7z"/>
		<path d="M346.6,965.2c-1.3,0-2.2-0.9-2.2-2.1c0-1.2,1-2.2,2.2-2.2c1.1,0,2.2,1.1,2.2,2.2C348.8,964.3,347.9,965.2,346.6,965.2z"/>
		<path d="M659.4,689.2c-0.9-0.1-1.6-0.5-1.7-1.7c-0.1-1.4,0.8-2.3,2.4-2.2c1.2,0,2.1,0.4,2.1,1.8
			C662.1,688.2,661,689.1,659.4,689.2z"/>
		<path d="M76.2,92.2c-1,0-1.8-0.4-2.7-0.8c-0.6-0.3-1-0.8-0.8-1.5c0.2-0.8,0.9-0.9,1.5-0.9c0.9,0,1.8,0.1,2.7,0.4
			c0.8,0.2,1.5,0.8,1.3,1.8C77.9,92.2,77,92.2,76.2,92.2z"/>
		<path d="M560.7,203.9c0,0.9-1.3,2.1-2.3,2.2c-1.1,0-2.3-1-2.4-2c-0.1-0.9,1.2-2.1,2.3-2.1C559.3,201.9,560.7,203,560.7,203.9z"/>
		<path d="M376.9,1011.5c1.4,0,2.1,0.6,2.2,2c0,1.2-0.9,2.2-2.1,2.2c-1,0-2.3-1.1-2.3-2.1C374.6,1012.6,375.8,1011.6,376.9,1011.5z"
			/>
		<path d="M209.8,539.4c1.3,0,2.2,0.9,2.1,2.1c-0.1,1.1-1.3,2.1-2.3,2c-1.2-0.1-1.8-1-1.9-2.1C207.4,540.4,208.6,539.4,209.8,539.4z
			"/>
		<path d="M648.9,703.2c1.6,0,2.3,0.8,2.2,2.1c-0.1,1.2-1.1,2.1-2.3,2c-1-0.1-2.2-1.4-2-2.4C647.1,703.9,647.7,703.1,648.9,703.2z"
			/>
		<path d="M559.2,189.8c1.2,0,2.3,0.9,2.2,2c0,1-1.3,2.2-2.3,2.1c-1.1-0.1-2.2-1.3-2.1-2.3C557.1,190.6,558.1,189.8,559.2,189.8z"/>
		<path d="M108.3,617.1c0,1.2-1,2.1-2.2,2.1c-1,0-2.2-1.3-2.2-2.2c0-1,1.3-2.1,2.3-2.1C107.3,614.8,108.3,615.9,108.3,617.1z"/>
		<path d="M632.5,641.2c-0.9-0.1-1.9-1.3-1.6-2.3c0.3-1.3,1.3-1.8,2.5-1.8c1.3,0,2,0.8,1.8,1.9C635.1,640.1,633.5,641.3,632.5,641.2
			z"/>
		<path d="M86,630.7c1.5,0,2.3,0.7,2.2,2c0,1.2-1,2.2-2.2,2.1c-1,0-2.3-1.4-2.1-2.3C84.3,631.6,84.7,630.5,86,630.7z"/>
		<path d="M352.3,977.2c1.6-0.1,2.7,0.8,2.8,1.8c0.1,1-1.2,2.3-2.1,2.3c-1,0-2.2-1.2-2.2-2.2C350.7,977.8,351.4,977.2,352.3,977.2z"
			/>
		<path d="M568.5,166.5c-0.1,1.3-1,2.1-2.3,2c-1.2-0.1-2.2-1.1-2.1-2.2c0.1-1.2,1-1.8,2.2-1.8C567.7,164.4,568.6,165.3,568.5,166.5z
			"/>
		<path d="M368.4,989.3c0,1.3-0.7,2.2-2.1,2.2c-1,0-2.4-1.2-2.3-2.1c0.2-1.1,0.8-1.9,2-2C367.4,987.3,368.4,988.1,368.4,989.3z"/>
		<path d="M596.4,137.5c0.1,0.9-1.2,2.1-2.2,2.2c-1.2,0-1.9-0.6-2.1-1.8c-0.2-1.3,0.6-2.2,1.9-2.3
			C595,135.6,596.3,136.7,596.4,137.5z"/>
		<path d="M433.9,675.6c-0.1,1.2-1.1,2-2.3,2c-1.1-0.1-2.2-1.2-2-2.2c0.2-1.1,0.9-1.9,2.1-1.9C432.9,673.4,433.9,674.5,433.9,675.6z
			"/>
		<path d="M682.3,663.8c0.1-1.1,1.2-2,2.4-1.8c1.2,0.2,1.9,0.8,1.8,2.1c-0.1,1.2-1,1.8-2.1,2C683.4,666.2,682.2,664.8,682.3,663.8z"
			/>
		<path d="M432.2,666c0,1.2-1,2.2-2.1,2.2c-1.3,0-1.8-0.9-2.1-2c-0.2-0.9,1.1-2.2,2.2-2.1C431.3,664.2,432.1,664.7,432.2,666z"/>
		<path d="M165.6,111.5c-0.1,1-1.3,2-2.4,1.9c-1.3-0.2-1.7-1.1-1.7-2.2c0-1.1,0.8-1.9,2-1.9C164.6,109.3,165.7,110.5,165.6,111.5z"
			/>
		<path d="M307.7,129.5c-0.2,1-0.9,1.7-2,1.9c-1.1,0.1-2.6-1.4-2.3-2.3c0.3-1,0.9-1.8,2.2-1.8C306.8,127.3,307.8,128.2,307.7,129.5z
			"/>
		<path d="M186.2,139.2c-0.2,1.2-0.9,1.9-2,2.1c-1,0.2-2.2-1.1-2.2-2.2c0-1,1-1.9,2.1-1.9C185.3,137.3,185.9,138.1,186.2,139.2z"/>
		<path d="M291.1,206.5c1.6,1.3,0.9,3,0.9,4.6c0,0.6-0.7,1.1-1.4,0.9c-1-0.2-1.7-1-1.6-2C289.2,208.7,289.5,207.2,291.1,206.5z"/>
		<path d="M606.5,562.7c0.9,0,1.6,0.3,1.8,1.3c0.2,0.9-0.4,1.3-1.2,1.6c-0.4,0.1-0.8,0.3-1.2,0.4c-1.2,0.2-2.7-0.5-2.7-1.4
			c0-1.3,1-1.3,2-1.4C605.7,563,606.1,562.9,606.5,562.7z"/>
		<path d="M444.1,598.8c1.4,0.1,1.9,1.1,2.1,2.1c0.2,0.9-1.4,2.3-2.3,2.1c-1.1-0.3-1.8-1.1-1.7-2.3
			C442.3,599.6,443.1,599,444.1,598.8z"/>
		<path d="M207.1,184.5c1,0.2,2,0.5,2.2,1.7c0.2,0.9-1.1,2.3-2.1,2.3c-1.2,0-1.8-0.8-2-1.9C205.1,185.5,206,184.5,207.1,184.5z"/>
		<path d="M90.7,638.8c0,1-1.4,2.4-2.3,2.2c-1.1-0.3-1.8-1.1-1.7-2.3c0.1-1.1,0.7-1.7,1.8-1.7C89.7,636.9,90.7,637.8,90.7,638.8z"/>
		<path d="M593.3,648.1c-1-0.1-1.7-0.7-1.8-1.9c-0.1-1.3,0.6-1.9,1.7-2.1c1.1-0.1,2.2,1,2.2,2.1
			C595.4,647.2,594.4,648.1,593.3,648.1z"/>
		<path d="M656.4,709.9c1,0.5,1.5-0.3,2.2-0.4c0.8-0.1,1.4,0.4,1.6,1.2c0.1,0.7-0.4,1.2-1,1.4c-1.4,0.4-2.8,0-4.2-0.3
			c-0.4-0.1-0.4-0.7-0.3-1.1c0.1-0.4,0.3-0.8,0.8-0.8C655.8,709.8,656.2,709.9,656.4,709.9z"/>
		<path d="M695.5,86.8c-0.3,0.5-0.5,1.1-0.8,1.6c-0.7,1-1.7,1.3-2.7,0.5c-0.8-0.7-1.4-1.6-0.6-2.7c0.8-1,1.7-1.1,2.7-0.6
			C694.7,85.9,695.1,86.4,695.5,86.8C695.6,86.8,695.5,86.8,695.5,86.8z"/>
		<path d="M129.2,79.4c-0.2,1-0.8,1.8-1.9,2.1c-0.9,0.2-2-0.8-2.1-1.8c-0.1-0.9,0.9-2.1,1.8-2.1C127.9,77.5,129.1,78.5,129.2,79.4z"
			/>
		<path d="M665.3,707.1c-1,0-2-1-1.9-2c0.1-1,0.6-1.7,1.8-1.8c1.1-0.1,2.1,0.8,2.1,1.8C667.2,706.1,666.3,707.1,665.3,707.1z"/>
		<path d="M170.8,1030.4c0-0.9,1.1-1.9,2-1.9c1.1,0,2.1,0.9,2,1.9c-0.1,1.1-0.8,1.9-2,2C172,1032.4,170.8,1031.2,170.8,1030.4z"/>
		<path d="M347.8,579.4c0.9,0.1,2.8-0.4,2.8,1.1c-0.1,1.4-2,1.2-3.3,1.2c-0.4,0-0.8,0-1.2-0.2c-0.7-0.2-1-0.7-0.9-1.4
			c0.1-0.7,0.6-0.7,1.2-0.7C346.7,579.4,347.1,579.4,347.8,579.4z"/>
		<path d="M213.5,621.3c-3.1,0.6-6.3,0.7-9.5,0.1C207.2,620.6,210.4,620.9,213.5,621.3z"/>
		<path d="M183.3,1047c-0.5,1.1-1.2,1.3-1.9,1.2c-1.3-0.3-2.6-0.5-4-0.5c-0.5,0-0.8-0.2-0.8-0.7c0-0.4,0.4-0.7,0.8-0.8
			C179.3,1045.9,181.2,1046.2,183.3,1047z"/>
		<path d="M652.8,558.5c0,1.1-0.7,1.8-1.8,1.9c-1.1,0.1-1.7-0.5-1.9-1.6c-0.2-0.8,0.8-2.2,1.6-2.3
			C651.5,556.4,652.7,557.4,652.8,558.5z"/>
		<path d="M334.5,683c-1.2-0.2-1.9-0.7-1.9-1.8c0-1.2,0.8-1.8,2-1.7c1.1,0,1.7,0.5,1.7,1.7C336.3,682.4,335.3,682.7,334.5,683z"/>
		<path d="M187.9,1016.2c-0.2,1.1-0.7,1.8-1.8,1.9c-0.9,0.1-2.3-1-2.1-1.9c0.2-1,0.8-1.7,1.9-1.6
			C187,1014.7,187.7,1015.2,187.9,1016.2z"/>
		<path d="M289.7,531.8c-1.1,0.1-1.7-0.6-1.9-1.6c-0.2-0.9,1-1.9,2-1.9c1.1,0,1.7,0.6,1.7,1.8C291.5,531.3,290.9,531.8,289.7,531.8z
			"/>
		<path d="M681.7,655.3c-0.1,1.1-0.6,1.7-1.8,1.6c-1.1,0-2.1-1-2-1.9c0.1-0.8,1.4-1.9,2.3-1.7C681.3,653.5,681.8,654.2,681.7,655.3z
			"/>
		<path d="M165.8,1033.6c0.1-1.1,1.1-1.9,2.2-1.8c1.2,0.1,1.6,0.9,1.5,2c-0.1,1.2-0.8,1.6-1.9,1.6
			C166.5,1035.2,166,1034.5,165.8,1033.6z"/>
		<path d="M647.3,641.8c0,1.1-0.9,1.9-2,1.8c-1-0.1-1.8-0.8-1.7-1.8c0.1-1.1,0.8-1.7,2.1-1.7C646.9,640.1,647.4,640.6,647.3,641.8z"
			/>
		<path d="M178.7,1011.5c-1.5,0.1-2.5-0.7-2.4-1.8c0-0.9,0.6-1.5,1.5-1.7c1.1-0.2,2.2,0.6,2.2,1.6
			C180,1010.7,179.5,1011.4,178.7,1011.5z"/>
		<path d="M205.2,554c0,1.2-0.6,1.7-1.8,1.6c-1.1-0.1-2.2-1-2-1.9c0.2-0.9,0.9-1.7,1.9-1.7C204.5,551.8,205.2,552.8,205.2,554z"/>
		<path d="M276.5,549.1c0,1.2-0.7,1.9-1.9,1.9c-1.1,0-1.8-0.7-1.8-1.7c0-1.1,0.7-1.8,1.9-1.8C275.9,547.5,276.5,547.9,276.5,549.1z"
			/>
		<path d="M164.3,1017.1c0,1.1-0.8,1.9-1.9,1.9c-1.1,0-1.8-0.7-1.7-1.7c0-1,0.7-1.8,1.8-1.7C163.4,1015.6,164.3,1015.9,164.3,1017.1
			z"/>
		<path d="M398.4,576.8c-0.1,1.1-0.7,1.7-1.8,1.7c-1,0-2.2-1.2-1.9-2c0.3-0.9,0.9-1.6,2-1.5C397.9,575.1,398.5,575.6,398.4,576.8z"
			/>
		<path d="M84.7,592.1c0.9,0.1,1.8,0.5,1.7,1.7c0,1.1-0.4,1.8-1.6,1.8c-1,0-2.1-0.9-2.1-1.8C82.7,592.9,83.7,592.1,84.7,592.1z"/>
		<path d="M202.4,521.6c0,0.8-1.3,2-2.1,1.9c-1-0.2-1.6-0.8-1.6-1.9c0.1-1.1,0.7-1.6,1.8-1.6C201.6,520.1,202.5,520.8,202.4,521.6z"
			/>
		<path d="M503.8,673.2c-2.3,1-4.1,1.2-6,1c-0.5-0.1-1-0.3-1-0.9c0-0.5,0.4-0.6,0.9-0.7C499.5,672.6,501.4,672.4,503.8,673.2z"/>
		<path d="M577.8,550c1.5,0,2.5,0.8,2.4,1.9c-0.2,1-0.9,1.2-1.8,1.2c-1.3,0-2.4-0.9-2.3-1.9C576.3,550.3,577,549.9,577.8,550z"/>
		<path d="M169.4,1014c0.9,0,1.7,0.3,1.8,1.5c0.1,1-0.9,2.1-1.9,2c-1-0.2-1.7-0.7-1.8-1.8C167.4,1014.8,168.3,1014.1,169.4,1014z"/>
		<path d="M381.8,177.6c-0.4-1.8-0.3-3.4-0.2-5c0-0.4,0.2-0.8,0.7-0.9c0.3,0,0.7-0.1,0.8,0.3c0.5,1.2,0.2,2.4,0.2,3.6
			C383.3,176.5,382.8,177.1,381.8,177.6z"/>
		<path d="M696.7,115.4c0,0.4-0.5,1.1-1.7,1.2c-1.2,0.1-1.7-0.7-2-1.6c-0.2-0.8,1.1-1.9,2.1-1.8
			C696.1,113.2,696.8,113.7,696.7,115.4z"/>
		<path d="M102.4,116.4c-0.1,1-0.8,1.7-1.7,1.8c-1,0.1-1.7-0.7-1.8-1.7c-0.1-1,0.5-1.8,1.6-1.7C101.5,114.8,102.2,115.3,102.4,116.4
			z"/>
		<path d="M679.7,95.8c-0.3,1-0.9,1.8-1.9,1.7c-1-0.1-1.7-0.7-1.7-1.8c0.1-1.1,0.6-1.7,1.8-1.6C678.9,94.3,679.5,94.8,679.7,95.8z"
			/>
		<path d="M475.1,545.1c-0.2,1.1-0.9,1.9-1.8,2c-1,0.1-1.7-0.6-1.8-1.7c0-0.9,0.5-1.6,1.4-1.7C474.1,543.7,474.7,544.3,475.1,545.1z
			"/>
		<path d="M196.1,122.2c-2.5,1.1-5.1,0.4-8.3,0.7C190,121.7,192.6,121.5,196.1,122.2z"/>
		<path d="M90.1,93.1c0.9,0.2,1.9,0.4,1.8,1.6c0,1.1-0.6,1.7-1.7,1.8c-1,0-1.5-0.5-1.6-1.5C88.5,94,89,93.3,90.1,93.1z"/>
		<path d="M669.2,699.4c-1.3-0.1-1.6-0.9-1.5-1.9c0-1,0.7-1.6,1.6-1.5c0.9,0.1,1.8,0.6,1.7,1.8C671,698.9,670.3,699.4,669.2,699.4z"
			/>
		<path d="M554.6,668.3c-1.6,1.5-3.4,1-5,0.8c-0.4-0.1-0.4-0.5-0.4-0.8c0-0.4,0.2-0.6,0.5-0.6C551.3,667.7,553,667.1,554.6,668.3z"
			/>
		<path d="M76.7,77.4c-0.3,1.1-1.1,1.6-2.1,1.5c-0.9-0.1-1.6-0.6-1.5-1.6c0.1-1,0.9-1.2,1.9-1.2C76,76,76.5,76.5,76.7,77.4z"/>
		<path d="M662.6,634.3c-0.9-0.1-1.4-0.8-1.5-1.6c-0.1-0.9,0.9-1.9,1.7-1.7c0.9,0.1,1.5,0.6,1.7,1.6
			C664.6,633.2,663.4,634.4,662.6,634.3z"/>
		<path d="M688.7,1074c0.2-2.2-1.7-4.5,0.1-6.7C690,1068.9,690,1070.2,688.7,1074z"/>
		<path d="M630.5,565.4c-0.9-0.3-2-0.4-2.1-1.7c0-1,0.6-1.6,1.5-1.4c1.1,0.2,1.8,0.9,1.8,2.1C631.7,565,631.2,565.4,630.5,565.4z"/>
		<path d="M657.2,641.6c-0.1-0.8-0.1-1.5,0.8-1.7c0.8-0.1,0.9,0.6,1.1,1.2c0.1,0.4,0.4,0.7,0.5,1.1c0.3,1-0.2,1.7-1.1,1.8
			c-0.8,0.2-1.4-0.3-1.4-1.2C657.1,642.4,657.2,642,657.2,641.6z"/>
		<path d="M478.9,529.2c0,1.2-0.6,1.8-1.5,1.8c-0.9,0-1.6-0.5-1.6-1.5c0-0.8,0.5-1.3,1.4-1.3C478.1,528.1,478.7,528.4,478.9,529.2z"
			/>
		<path d="M643.2,704.8c-0.9-0.1-1.6-0.4-1.7-1.4c-0.1-0.8,0.3-1.4,1.2-1.5c0.9-0.1,1.7,0.1,1.8,1.1
			C644.7,704.1,644.2,704.6,643.2,704.8z"/>
		<path d="M619,560.1c-0.3,1-1,1.5-2,1.4c-0.8-0.1-1.2-0.7-1.1-1.5c0.2-1,0.8-1.7,1.9-1.5C618.6,558.6,619,559.1,619,560.1z"/>
		<path d="M270,204.8c-1.1-0.1-1.8-0.5-1.8-1.5c0-1,0.7-1.4,1.6-1.4c1,0,1.5,0.6,1.4,1.6C271.2,204.3,270.6,204.6,270,204.8z"/>
		<path d="M630.9,629.2c1,0,1.5,0.7,1.6,1.6c0,0.9-0.6,1.6-1.5,1.6c-0.8,0-1.6-0.6-1.6-1.6C629.3,629.9,629.9,629.3,630.9,629.2z"/>
		<path d="M609.8,572.6c1,0.1,1.7,0.6,1.7,1.7c0,0.8-0.6,1.3-1.4,1.3c-1.1,0-1.7-0.6-1.7-1.7C608.4,573.1,608.9,572.6,609.8,572.6z"
			/>
		<path d="M466.5,541.3c1.2,0.2,1.4,1,1.3,1.9c-0.1,0.9-0.7,1.2-1.5,1.2c-1-0.1-1.7-0.5-1.5-1.6C465,541.9,465.6,541.3,466.5,541.3z
			"/>
		<path d="M281.4,136.7c1.2,0.2,1.4,1,1.3,1.9c-0.1,0.9-0.7,1.2-1.5,1.2c-1-0.1-1.7-0.5-1.5-1.6
			C279.9,137.3,280.5,136.7,281.4,136.7z"/>
		<path d="M468.5,552.2c0,0.8-0.3,1.4-1.2,1.5c-0.9,0.1-1.7-0.2-1.8-1.2c-0.1-0.9,0.9-1.8,1.8-1.8
			C468.1,550.8,468.3,551.4,468.5,552.2z"/>
		<path d="M337,670.5c-0.9-0.3-1.8-0.7-1.6-1.7c0.1-1,0.9-1.3,1.9-1.2c0.9,0.1,1.2,0.7,1.1,1.5C338.3,670,337.7,670.3,337,670.5z"/>
		<path d="M614.6,571.3c1,0.1,1.3,0.6,1.3,1.4c0,1.1-0.6,1.5-1.6,1.4c-0.9,0-1.4-0.6-1.3-1.4C613.1,572,613.6,571.3,614.6,571.3z"/>
		<path d="M594,558.3c0,1-0.7,1.3-1.4,1.3c-0.9,0-1.6-0.6-1.7-1.5c-0.1-1.1,0.8-1.5,1.6-1.5C593.3,556.6,593.9,557.3,594,558.3z"/>
		<path d="M671.7,708.4c-0.2,0.8-0.8,1.1-1.6,1c-0.9-0.1-1.3-0.8-1.2-1.5c0.1-0.9,0.9-1.5,1.8-1.2
			C671.5,706.9,671.8,707.5,671.7,708.4z"/>
		<path d="M683,601.9c-0.8-0.1-1.3-0.6-1.3-1.4c0-1,0.7-1.5,1.6-1.4c0.8,0,1.3,0.6,1.3,1.4C684.6,601.4,684,601.9,683,601.9z"/>
		<path d="M600.4,124c-0.1,1-0.7,1.4-1.5,1.3c-0.9-0.1-1.3-0.6-1.2-1.5c0.1-0.8,0.5-1.5,1.3-1.5C600,122.4,600.4,123.2,600.4,124z"
			/>
		<path d="M512.3,643.7c-1.4,1.2-2.6,1.5-3.9,1.2c-0.3-0.1-0.6-0.3-0.5-0.6c0-0.3,0.1-0.6,0.4-0.7
			C509.5,643.3,510.7,643.2,512.3,643.7z"/>
		<path d="M570.3,167.5c0.8,0.1,1.3,0.5,1.4,1.4c0.1,0.8-0.3,1.4-1.2,1.5c-1,0.1-1.6-0.4-1.5-1.4C569,168.1,569.5,167.7,570.3,167.5
			z"/>
		<path d="M658.3,560c0,0.9-0.6,1.3-1.3,1.5c-0.9,0.2-1.3-0.5-1.4-1.3c-0.1-0.8,0.4-1.4,1.2-1.5C657.6,558.7,658.1,559.3,658.3,560z
			"/>
		<path d="M88.7,608.7c-0.9-0.1-1.3-0.6-1.3-1.4c0-0.8,0.5-1.4,1.3-1.4c1,0,1.5,0.6,1.4,1.6C90,608.4,89.5,608.7,88.7,608.7z"/>
		<path d="M191,164c-0.2,0.8-0.6,1.4-1.5,1.2c-0.8-0.2-1.1-0.8-1.2-1.6c0-0.7,0.4-1.2,1.1-1.2C190.3,162.6,190.9,163.1,191,164z"/>
		<path d="M635.9,699.2c0,0.7-0.2,1.3-1,1.3c-0.8,0.1-1.5-0.2-1.5-1.1c0-0.8,0.4-1.4,1.3-1.4C635.4,698,635.9,698.4,635.9,699.2z"/>
		<path d="M682.8,619.7c0,0.9-0.3,1.4-1.2,1.3c-0.7,0-1.2-0.4-1.2-1.1c-0.1-0.9,0.5-1.3,1.3-1.4
			C682.3,618.6,682.8,618.9,682.8,619.7z"/>
		<path d="M667.9,80c0,0.8-0.4,1.4-1.2,1.5c-0.9,0.1-1.2-0.5-1.4-1.2c-0.2-1,0.4-1.3,1.2-1.4C667.2,78.9,667.9,79.1,667.9,80z"/>
		<path d="M386.4,969.4c-0.7-1.4-0.8-2.4-0.7-3.6c0-0.4,0.2-0.8,0.7-0.9c0.6-0.1,0.7,0.4,0.8,0.8C387.2,966.9,387.5,968,386.4,969.4
			z"/>
		<path d="M670.5,690.8c0.5-1.5,0.1-3.4,2.1-4.5C672.5,688.2,672.4,689.9,670.5,690.8z"/>
		<path d="M645.1,646.1c-0.1,0.9-0.9,1.1-1.5,1.3c-0.8,0.2-1.3-0.4-1.4-1.2c-0.1-0.7,0.3-1.2,1-1.3
			C644.1,644.8,644.6,645.4,645.1,646.1z"/>
		<path d="M101.7,624.2c0.7,0.2,1,0.6,1,1.3c-0.1,0.7-0.3,1.2-1.1,1.2c-0.8,0-1.4-0.4-1.4-1.3C100.2,624.6,100.9,624.3,101.7,624.2z
			"/>
		<path d="M683.4,679.7c0,0.9-0.4,1.3-1.3,1.4c-0.7,0-1.1-0.4-1.2-1.1c-0.1-0.9,0.5-1.3,1.3-1.3
			C682.9,678.6,683.4,678.9,683.4,679.7z"/>
		<path d="M93.2,79.5c0.9,0.1,1.3,0.4,1.3,1.2c0,0.6-0.1,1.3-0.9,1.3c-0.8,0.1-1.5-0.2-1.6-1.1C92,80,92.7,79.7,93.2,79.5z"/>
		<path d="M468.2,519.9c-0.9-0.1-1.2-0.8-1.1-1.5c0.1-0.7,0.6-1.1,1.3-1.1c0.8,0,1.4,0.4,1.3,1.3C469.5,519.4,469,519.8,468.2,519.9
			z"/>
		<path d="M545.2,562.1c0.1-0.8,0.4-1.4,1.3-1.4c0.9-0.1,1.3,0.4,1.4,1.2c0.1,0.7-0.3,1.2-1,1.2
			C546.1,563.1,545.3,563.1,545.2,562.1z"/>
		<path d="M620.5,577.8c0.7,0.1,1.2,0.5,1.2,1.2c0,0.8-0.2,1.4-1.2,1.3c-0.7-0.1-1.2-0.5-1.2-1.1
			C619.3,578.6,619.7,577.9,620.5,577.8z"/>
		<path d="M654.2,636.1c0,0.7-0.2,1.2-1,1.2c-0.8,0-1.5-0.3-1.4-1.2c0-0.7,0.6-1.3,1.4-1.3C653.9,634.8,654.2,635.4,654.2,636.1z"/>
		<path d="M95.5,589.4c-0.7,0-1.2-0.3-1.2-1c0-0.8,0.4-1.4,1.3-1.3c0.7,0,1.1,0.4,1.1,1.1C96.8,589,96.3,589.4,95.5,589.4z"/>
		<path d="M397.6,584.4c0,0.9-0.4,1.2-1.1,1.2c-0.7,0-1.3-0.3-1.3-1c0-0.8,0.5-1.4,1.3-1.3C397.2,583.3,397.5,583.8,397.6,584.4z"/>
		<path d="M533.5,560.7c0,0.7-0.2,1.2-1,1.2c-0.8,0-1.5-0.2-1.4-1.1c0-0.8,0.6-1.3,1.4-1.3C533.3,559.4,533.4,560,533.5,560.7z"/>
		<path d="M167.7,601.3c0,0.7-0.1,1.2-0.9,1.2c-0.8,0-1.5-0.2-1.5-1.1c0-0.8,0.5-1.3,1.4-1.3C167.4,600.1,167.6,600.6,167.7,601.3z"
			/>
		<path d="M410.7,580.5c-0.1,0.7-0.5,1.2-1.2,1.2c-0.8,0-1.3-0.5-1.3-1.3c0-0.7,0.5-1.1,1.2-1.1
			C410.3,579.2,410.7,579.7,410.7,580.5z"/>
		<path d="M443.3,677.6c0.9,0,1.2,0.5,1.2,1.4c0,0.8-0.5,1-1.1,1c-0.7,0-1.3-0.2-1.3-0.9C442,678.3,442.4,677.7,443.3,677.6z"/>
		<path d="M94.3,75.8c0,0.7-0.4,1.1-1.1,1.2c-0.7,0-1.1-0.5-1.2-1.2c-0.1-0.6,0.3-0.9,0.9-1C93.6,74.7,94.1,75,94.3,75.8z"/>
		<path d="M658.6,724.1c1,0.1,1.3,0.5,1.2,1.2c0,0.8-0.5,1-1.2,0.9c-0.7-0.1-1.2-0.4-1.1-1.1C657.5,724.4,658.2,724.3,658.6,724.1z"
			/>
		<path d="M648.1,655.1c0.7,0.1,1.1,0.5,1.1,1.2c-0.1,0.6-0.4,1-1,1c-0.8,0-1-0.6-1-1.3C647.1,655.3,647.5,655.1,648.1,655.1z"/>
		<path d="M645.4,710.5c0,1.3-0.5,1.5-1.2,1.4c-0.7-0.1-1.2-0.4-1.2-1.1c0.1-0.7,0.7-1,1.3-1C645.1,709.7,645.4,710.2,645.4,710.5z"
			/>
		<path d="M198,191.3c0.6,0.1,1.3,0.2,1.2,1c0,0.7-0.5,1.1-1.2,1.1c-0.6,0-1-0.3-1-0.8C197,191.9,197.3,191.5,198,191.3z"/>
		<path d="M560.6,544.5c-0.1,0.6-0.4,0.9-1,1c-0.6,0-1-0.3-1.1-0.9c-0.1-0.6,0.3-1.1,0.8-1.2C560,543.3,560.4,543.9,560.6,544.5z"/>
		<path d="M421.5,568.7c0,0.3-0.3,0.6-0.9,0.6c-0.8,0-1.1-0.4-1.1-1.1c0-0.6,0.3-1,0.9-1C421,567.3,421.6,567.6,421.5,568.7z"/>
		<path d="M659.2,720.8c0,0.6-0.2,1-0.8,1.1c-0.7,0.1-1.2-0.3-1.2-1c0-0.6,0.2-1,0.8-1.1C658.6,719.8,659.1,720.1,659.2,720.8z"/>
		<path d="M445.5,604.1c0.5,0.2,0.9,0.4,0.9,1.1c0,0.6-0.4,0.9-1,0.8c-0.6-0.1-0.9-0.4-0.9-1C444.6,604.4,444.9,604.1,445.5,604.1z"
			/>
		<path d="M551.4,196c0.3,0.1,0.9-0.1,0.9,0.5c0,0.6-0.3,1-0.8,1.1c-0.6,0.1-1-0.3-1.1-0.8C550.3,196.1,550.9,196.1,551.4,196z"/>
		<path d="M475.9,553.1c-0.5-0.1-0.8-0.4-0.6-1c0.1-0.4,0.4-0.7,0.8-0.7c0.6,0,0.9,0.4,0.9,1C477,553,476.5,553.1,475.9,553.1z"/>
		<path d="M686.1,609.7c0,0.7-0.4,0.9-1,0.8c-0.5-0.1-0.8-0.4-0.8-0.8c0.1-0.5,0.5-0.9,1.1-0.9C686,608.9,686,609.4,686.1,609.7z"/>
		<path d="M636,99.2c0.6,0,0.6,0.5,0.7,0.9c0,0.6-0.4,0.9-1,0.8c-0.5-0.1-0.8-0.3-0.8-0.8C635,99.6,635.4,99.2,636,99.2z"/>
		<path d="M99.7,661.1c-0.3,0.2-0.5,0.7-1,0.4c-0.4-0.2-0.7-0.5-0.5-1c0.2-0.4,0.6-0.5,1-0.3C99.7,660.3,100,660.6,99.7,661.1z"/>
		<path d="M616.1,576.6c0.4,0.1,0.8,0.2,0.9,0.7c0.1,0.5-0.2,0.8-0.7,0.8c-0.4,0-0.8-0.1-0.8-0.6C615.4,577,615.6,576.6,616.1,576.6
			z"/>
		<path d="M669.5,565.6c-0.1,0.5-0.5,0.6-0.9,0.6c-0.5,0-0.7-0.4-0.7-0.8c0-0.5,0.4-0.7,0.8-0.6
			C669.2,564.8,669.5,565.1,669.5,565.6z"/>
		<path d="M456.2,686.2c-0.4,0-0.9-0.2-0.8-0.7c0-0.5,0.4-0.7,0.8-0.7c0.2,0,0.6,0.3,0.6,0.6C457,685.9,456.7,686.2,456.2,686.2z"/>
		<path d="M596.5,656.1c0.6,0.2,0.8,0.6,0.7,1.2c-0.1,0.4-0.4,0.7-0.9,0.6c-0.4-0.2-0.6-0.5-0.5-1C595.9,656.4,596,656,596.5,656.1z
			"/>
		<path d="M633,567.6c0.3,0,0.7,0,0.9,0.5c0.2,0.5-0.2,0.8-0.6,0.9c-0.5,0.1-0.7-0.2-0.9-0.6C632.2,568,632.4,567.6,633,567.6z"/>
		<path d="M354.6,644.1c0.9-0.9,1.6-0.9,2.5-0.1C356.3,644.6,355.6,644.5,354.6,644.1z"/>
		<path d="M170.3,423.3c-0.4-1.2,0.1-1.8,0.8-2.4C171.8,422.2,170.9,422.6,170.3,423.3z"/>
		<path d="M640.1,643.6c0,0.4-0.3,0.7-0.7,0.7c-0.4,0-0.8-0.2-0.7-0.7c0.1-0.4,0.5-0.5,0.9-0.6C640,643,640.1,643.3,640.1,643.6z"/>
		<path d="M562.8,550.8c-0.1,0.4-0.3,0.8-0.8,0.7c-0.5-0.1-0.5-0.5-0.6-0.9c0-0.4,0.3-0.5,0.6-0.5
			C562.5,550,562.7,550.3,562.8,550.8z"/>
		<path d="M588.6,421c0.8,0.4,1.1,1.1,1,1.9c-0.2,0.3-0.3,0.3-0.5,0.1C588.7,422.5,587.8,422,588.6,421z"/>
		<path d="M666,916.7c0,0.4-0.1,0.9-0.6,0.8c-0.3,0-0.6-0.3-0.5-0.6c0.1-0.3,0.3-0.6,0.5-0.7C665.8,916,665.9,916.4,666,916.7z"/>
		<path d="M569.2,727c0,1.1,0,2.3,0,3.4c0,70.6,0,141.1,0,211.7c0,8.2,0,16.5-0.2,24.7c-0.1,2.8-0.4,5.6-0.4,8.4
			c0,0.8,0,1.7-1.2,1.9c-1.3,0.1-1.6-0.7-1.7-1.7c-0.1-0.8-0.8-1.5-0.5-2.4c0.8-2.7,0-5.3,0.2-8c1.1-15.4,0.4-30.9,0.7-46.3
			c0.4-19,0.3-38,0.4-57c0.1-26.8,0.1-53.7,0.1-80.5c0-7.5-0.3-15-0.6-22.4c-0.1-2.1,0.4-4.1,1-6.1c0.8-2.6,0.9-5.2,0.2-7.9
			c-0.9-3.5-0.6-7.2-1.2-10.8c-0.5-2.7,1.6-4.7,2.6-7C568.8,726.9,569,726.9,569.2,727z"/>
		<path d="M584,705c-1,0.8-2,0.5-2.9,0.5c-10.2,0.1-20.4,0.3-30.6,0.1c-24.2-0.3-48.4,0.3-72.5-0.3c-12.2-0.3-24.4-0.1-36.5-0.3
			c-0.3,0-0.6,0-0.9,0c-0.6-0.1-1.4,0.1-1.3-0.8c0.1-0.8,0.8-0.8,1.4-0.9c0.5,0,1,0,1.6,0c0.6,0,1.3,0,1.9,0
			c29.3,0,58.5,0.7,87.8,0.5c4.4,0,8.8-0.1,13.1,0.2c12.4,0.8,24.8,0.2,37.2,0.4C582.7,704.5,583.3,704.3,584,705z"/>
		<path d="M559.6,724.7c-2.6,0.6-4.7,0.4-6.7,0.3c-7.1-0.2-14.1-0.1-21.2,0c-7.1,0.1-14.2,0.2-21.2-0.2c-14.2-0.7-28.5-0.4-42.7-0.7
			c-4.6-0.1-9.1-0.4-13.7-0.4c-0.5,0-1.1,0-1.1-0.7c0-0.6,0.5-0.9,1-0.9c3.6,0,7.3-0.3,10.9,0.1c0.8,0.1,1.6,0.2,2.5,0.2
			c9.7,0.1,19.4,0.2,29,0.2c10.9-0.1,21.8,0.5,32.7,0.8c9,0.3,18.1-0.1,27.1,0.5C557.1,724.1,558.1,723.8,559.6,724.7z"/>
		<path d="M466.4,749.2c-1.5,0.2-3,0.7-3.9-1c-0.5-0.9-0.1-1.6,0.4-2.3c1.1-1.3,2.4-1,3.5,0c0.3-0.3,0.4-0.5,0.5-0.6
			c0.3-0.8-0.6-2.5,1-2.4c0.9,0,0.6,1.6,0.6,2.4c0.5,6.3-1,12.6-1,18.9c0,1.8-0.2,3.5-0.3,5.3c-0.4,6.8-1.2,13.6-1.1,20.5
			c0,2.2,0.3,4.3,0.5,6.5c0.5,6.1-0.4,12.2,0.1,18.5c-1.2-0.6-1.2-1.5-1.2-2.2c-0.1-3-0.5-6-0.7-9c-0.5-10.8-0.4-21.6,0-32.4
			c0.2-4.3,0.3-8.7,1.2-13C466.5,755.4,466.7,752.4,466.4,749.2z"/>
		<path d="M568.1,718.2c1.5-2.4,3.5-4.3,5.7-6c1.7-1.3,3.6-2.4,5.4-3.7c0.6-0.4,1.1-1,1.9-0.9c0.6,0,1.3-0.2,1.6,0.5
			c0.3,0.6,0.2,1.3-0.3,1.7C577.9,713,573.6,716.6,568.1,718.2z"/>
		<path d="M481.2,851.4c-1-5-1.2-9.9-1.1-14.9c0-0.7,0.2-1.4,0.2-2.2c0.1-0.6,0.3-1,0.9-1c0.6,0,0.9,0.4,0.9,1
			c0,0.9,0.1,1.9,0.1,2.8c0,2.2,0,4.3,0.4,6.5C483.1,846.3,481.5,848.8,481.2,851.4z"/>
		<path d="M569.2,983.2c-0.2-0.1,0.3,0,0.8,0.3c3.6,2.1,6.7,4.8,10.4,6.7c0.5,0.3,1,0.8,0.5,1.5c-0.4,0.5-0.8,0.4-1.3,0.2
			c-4-1.9-7.6-4.5-11.3-7c-0.4-0.3-0.7-0.8-0.5-1.3C568,983.2,568.2,982.9,569.2,983.2z"/>
		<path d="M461.2,742.6c-1.5,0-2.7-1-2.7-2.4c0-1.5,1.6-3.2,2.9-3.2c1.3,0,2.5,1.2,2.6,2.6C464.1,741.2,462.9,742.6,461.2,742.6z"/>
		<path d="M476.4,738.5c0.1,1.4-1.1,2.6-2.5,2.7c-1.3,0-2.4-1-2.5-2.2c-0.1-1.4,1-2.8,2.3-2.9C475,735.9,476.3,737.1,476.4,738.5z"
			/>
		<path d="M469.5,733.8c0.1,1-1.2,2.4-2.3,2.5c-1.3,0.2-2.7-0.9-2.7-2.3c0-1.4,0.8-2.1,2-2.3C467.7,731.4,469.4,732.7,469.5,733.8z"
			/>
		<path d="M431.6,709.3c-1.1,0-2.3-1-2.4-2c-0.1-1.1,1.1-2.4,2.3-2.4c1.1,0,2.3,1,2.4,2C434,708.1,432.9,709.2,431.6,709.3z"/>
		<path d="M504.8,735.1c-1.2,0-2.2-1-2.2-2.1c0.1-1,1.3-2.2,2.3-2.2c1.2,0,2.4,1.2,2.3,2.4C507.1,734.3,506.1,735.1,504.8,735.1z"/>
		<path d="M457.8,761.8c0-1.1,0.8-1.8,1.9-2c1.2-0.1,1.9,0.6,2.2,1.7c0.2,0.9-1,2.2-2.1,2.3C459,763.9,457.9,762.9,457.8,761.8z"/>
		<path d="M489.7,743.2c-1-0.2-1.8-0.9-1.9-2c-0.1-1.2,0.8-1.9,1.9-2c1.2-0.1,2,0.6,2.2,1.8C492.2,741.9,490.9,743.2,489.7,743.2z"
			/>
		<path d="M432.6,725.1c-0.3,0.9-0.9,1.7-2,1.8c-1.1,0.1-2.2-1.1-2.1-2.2c0.1-1,1.1-1.9,2.1-1.8C431.6,723,432.6,724,432.6,725.1z"
			/>
		<path d="M476.6,748.3c1.2,0,1.9,0.4,1.9,1.5c0,1.1-0.6,1.7-1.6,1.9c-0.9,0.2-2.3-1-2.1-1.8C475,749,475.6,748.3,476.6,748.3z"/>
		<path d="M491.4,728c-0.5,1-1,1.8-2.1,1.6c-0.9-0.2-1.5-0.9-1.4-1.8c0.1-0.8,0.5-1.6,1.6-1.5C490.7,726.5,491,727.3,491.4,728z"/>
		<path d="M456.7,771.8c-0.9-0.2-1.5-0.7-1.5-1.7c0.1-0.9,0.7-1.2,1.5-1.2c1,0,1.6,0.5,1.5,1.6C458.1,771.3,457.5,771.6,456.7,771.8
			z"/>
		<path d="M456.7,719.2c-0.9-0.2-1.4-0.8-1.4-1.8c0.1-0.7,0.6-1.1,1.3-1.1c0.9,0,1.6,0.4,1.6,1.5
			C458.2,718.8,457.5,719.1,456.7,719.2z"/>
		<path d="M568.9,724.7c-0.5-0.5-0.9-0.8-1.2-1.2c-0.3-0.5-1.9-0.1-1-1.3c0.6-0.7,1.3,0.1,1.8,0.6
			C568.9,723.2,569,723.7,568.9,724.7z"/>
		<path d="M440,760.1c-1,0-1.5-0.5-1.5-1.3c0-0.9,0.7-1.4,1.4-1.4c0.7,0,1.5,0.3,1.4,1.3C441.3,759.5,440.8,760,440,760.1z"/>
		<path d="M445.7,747.4c0,0.9-0.2,1.3-0.8,1.4c-0.6,0.1-1.3,0-1.4-0.8c-0.1-0.7,0.2-1.3,1-1.3C445,746.7,445.6,747,445.7,747.4z"/>
		<path d="M188.5,722.3c-1.1,0.8-1.7,1.2-2.2,1.6c-0.8,0.8-1.1,1.7-0.4,2.8c0.2,0.3,0.3,0.6,0.4,0.8c2.3,3.3,2.3,6.8,1.6,10.7
			c-0.6,3.1-0.5,6.4-1.2,9.5c-0.2,1.1,0,2.1,0.3,3c1.3,3.8,1.3,7.7,1.2,11.7c-0.4,17.8-0.5,35.6-0.4,53.4c0,12.1,0.3,24.2,0.1,36.3
			c-0.1,8.9-0.3,17.9-0.1,26.8c0.3,16.1,0.1,32.2,0.6,48.3c0.3,8.8,0,17.6,0.1,26.4c0,3,0.2,6,0.4,9c0.3,3.5-0.6,7,0.3,10.6
			c0.2,0.9-0.3,2-0.6,3c-0.2,0.8-0.8,1.2-1.7,1c-0.9-0.1-1.2-0.7-1.2-1.5c-0.1-2.8-0.2-5.6-0.2-8.4c-0.1-14.3-0.4-28.5-0.4-42.8
			c0-54.7,0-109.4,0-164.1c0-10.5,0-21,0-31.5c0-1.5-0.1-2.9,0.2-4.4C185.5,723.1,186,721.7,188.5,722.3z"/>
		<path d="M170,705.8c0.3-0.5,0.1-1.3,1-1.3c0.4,0,0.8,0,1.2,0c0.8,0,1.7,0,2.5,0c33.8-0.1,67.5-0.7,101.3-0.8
			c11.9,0,23.7-0.1,35.6-0.3c0.9,0,1.9,0,2.8,0.1c0.4,0,0.7,0.4,0.7,0.9c0,0.5-0.4,0.6-0.8,0.7c-0.5,0-1,0-1.6,0
			c-19.5-0.3-38.9,0.6-58.4,0.5c-14-0.1-27.9,0-41.9,0c-13.1,0-26.3,0-39.4,0C172,705.5,171,705.6,170,705.8
			C169.9,705.7,170,705.8,170,705.8z"/>
		<path d="M236.3,889.8c-0.6-4.3-1.6-8.5-2-12.8c-0.5-5.9-1.1-11.8-1.6-17.7c-0.4-4.3-0.6-8.7-0.9-13c-0.3-4.6-0.7-9.1-1-13.7
			c-0.7-9.5-1.2-19.1-2.1-28.6c-0.7-7.4-1.4-14.9-2.1-22.3c-0.7-7.5-1.7-15.1-1.7-22.7c0-3.1-0.5-6.2-0.8-9.3
			c-0.1-0.8-0.5-1.8,0.8-1.9c1,0,1.4,0.7,1.4,1.7c-0.1,5.7,0.2,11.4,0.7,17.1c0.6,6.9,1.5,13.8,2.2,20.7c0.7,6.8,1.2,13.6,1.7,20.5
			c0.5,6.3,1.1,12.6,1.5,18.9c0.3,4,0.4,8.1,0.6,12.1c0.3,4.4,0.6,8.9,0.9,13.3c0.5,8.4,1.7,16.7,2.5,25c0.4,4.2,0.5,8.5,0.7,12.7
			C236.8,889.8,236.6,889.8,236.3,889.8z"/>
		<path d="M195.4,724.7c0.6-1,1.4-0.7,2-0.7c5.8-0.1,11.7-0.1,17.5-0.2c9.6-0.2,19.2-0.1,28.7-0.7c8.3-0.6,16.6-0.3,25-0.4
			c10-0.2,20-0.4,30-0.5c1,0,2.8-0.7,2.7,1c-0.1,1.3-1.7,0.6-2.7,0.6c-16.7,0.6-33.5,0.3-50.3,0.8c-14.1,0.4-28.1,0.1-42.1,0.3
			c-2.9,0-5.8,0.1-8.7,0.2C196.8,725.1,196.1,725.2,195.4,724.7z"/>
		<path d="M186,718.5c-5-2-9.1-5.1-13.3-8.1c-0.7-0.5-1.8-1.1-1.2-2.2c0.6-1.1,1.9-0.8,2.8-0.3c2.6,1.7,5.1,3.5,7.6,5.3
			c1.4,1.1,2.5,2.4,3.8,3.6C186.1,717.3,186.5,717.6,186,718.5z"/>
		<path d="M247.3,858.5c-1.5-0.9-1.1-2.6-1.3-3.9c-0.5-3.9-1.9-7.6-2-11.6c-0.1-3.4-0.3-6.8-0.4-10.2c0-0.7-0.1-1.7,0.9-1.6
			c0.8,0.1,1,0.9,1,1.7c0,0.3,0,0.6,0,0.9c-0.1,7.6,0.8,15,1.8,22.5C247.6,857,247.9,857.7,247.3,858.5z"/>
		<path d="M186.8,983.3c-0.1,1-0.5,1.5-1,1.8c-3.5,2.2-6.8,4.7-10.5,6.5c-0.7,0.3-1.4,0.9-1.8-0.1c-0.4-0.9,0.4-1.3,1-1.6
			c3.4-1.5,6.1-4.2,9.4-6C184.7,983.4,185.5,982.8,186.8,983.3z"/>
		<path d="M291.3,954c0-1.4,1.4-2.9,2.8-2.9c1.5,0,2.9,1.5,2.9,3.1c-0.1,1.5-1.3,2.8-2.8,2.8C292.7,957.1,291.2,955.6,291.3,954z"/>
		<path d="M278.2,738.2c-1.6,0-2.6-0.9-2.6-2.4c0-1.5,1.3-2.7,2.9-2.6c1.4,0.1,2.3,0.9,2.4,2.3C280.9,737.2,280,738.2,278.2,738.2z"
			/>
		<path d="M201.8,952.9c1.1-0.1,2.4,1.1,2.6,2.3c0.1,1.2-0.9,2.4-2.2,2.5c-1.3,0.1-2.7-1.1-2.7-2.4
			C199.4,954.2,200.6,952.9,201.8,952.9z"/>
		<path d="M241.6,889.6c0.7,0.1,0.8,0.7,0.8,1.1c-0.2,4.1,0.7,8.2-0.6,12.3C240.5,899.5,240.5,894.5,241.6,889.6z"/>
		<path d="M285.7,954.9c0.1,1.3-0.7,2.1-2,2.2c-1.3,0.1-2.2-0.6-2.3-1.9c-0.1-1.2,0.7-2.3,1.9-2.4
			C284.4,952.6,285.6,953.7,285.7,954.9z"/>
		<path d="M278,747.4c-1.1,0.1-2.3-0.9-2.3-2c-0.1-1.2,0.6-1.9,1.8-2.1c1.2-0.1,2.4,0.7,2.6,1.7C280.2,745.9,279,747.3,278,747.4z"
			/>
		<path d="M297.1,733.2c-0.1,1.3-1,2-2.3,1.9c-1.1-0.1-2.2-1.3-2.1-2.3c0.1-1,1.5-2.1,2.4-2C296.3,730.9,297.2,732,297.1,733.2z"/>
		<path d="M277.7,966.1c1.2,0,1.9,0.7,1.9,1.9c0,1.2-0.9,2.3-2,2.2c-1.2-0.1-1.9-0.7-1.9-1.9C275.6,967,276.4,966.2,277.7,966.1z"/>
		<path d="M183.1,952.3c0.1,1.1-0.9,2.2-2,2.2c-1.2,0-1.9-0.7-2.1-1.8c-0.2-1.2,0.6-1.9,1.7-2.1C181.8,950.3,183,951.3,183.1,952.3z
			"/>
		<path d="M198.9,941.2c1.1,0,2.4,1.1,2.3,2.1c-0.2,1.1-0.9,1.9-2.1,1.9c-1.2,0-1.9-0.8-2.1-1.9
			C196.9,942.2,197.9,941.2,198.9,941.2z"/>
		<path d="M267.8,734.8c1.1,0.3,2.1,0.6,2.2,1.9c0.1,1-1.2,2.3-2.2,2.1c-1.2-0.1-1.8-0.9-1.9-2.1
			C265.8,735.7,266.9,734.7,267.8,734.8z"/>
		<path d="M289.6,785.8c-0.2,1.1-1,1.8-2.1,1.8c-1.2,0-1.8-0.9-1.8-2.1c0-1.1,0.9-2,2-1.8C288.7,783.8,289.6,784.3,289.6,785.8z"/>
		<path d="M242.9,736.4c1.7-0.1,2.3,0.7,2.6,1.7c0.2,0.9-1.2,2.3-2.1,2.2c-1.1-0.2-1.9-0.9-1.9-2
			C241.4,737.2,242.2,736.5,242.9,736.4z"/>
		<path d="M283.7,741.3c-1.1,0-1.7-0.6-1.8-1.7c-0.1-1,1-2.1,1.9-2c1,0.1,1.7,0.6,1.8,1.8C285.7,740.6,285,741.4,283.7,741.3z"/>
		<path d="M265.5,963.2c-1.1-0.2-1.7-0.8-1.7-1.9c0-0.9,1.1-2,1.9-2c1,0,1.9,1.1,1.8,2.1C267.4,962.6,266.5,963,265.5,963.2z"/>
		<path d="M285.9,754.5c1.1-0.1,1.8,0.3,1.8,1.6c0,1.1-0.5,1.8-1.6,1.9c-1,0.2-2.2-0.9-2.1-1.8C284.2,755.2,284.8,754.5,285.9,754.5
			z"/>
		<path d="M289,772.1c-0.1,1.1-0.5,1.8-1.7,1.8c-1.2,0-1.8-0.6-2-1.6c-0.2-0.9,0.9-1.9,2-1.9C288.5,770.4,289,771,289,772.1z"/>
		<path d="M218.9,737.6c-0.2,1-0.8,1.7-1.9,1.5c-1-0.2-1.6-0.9-1.5-2c0.1-1,0.7-1.5,1.7-1.4C218.3,735.9,218.9,736.5,218.9,737.6z"
			/>
		<path d="M293.6,781.1c-1-0.2-1.7-0.7-1.7-1.8c0-0.9,0.4-1.6,1.4-1.6c1,0,1.8,0.5,1.9,1.6C295.3,780.3,294.6,780.9,293.6,781.1z"/>
		<path d="M295.3,737.7c1,0,1.5,0.6,1.6,1.5c0.1,1-0.6,1.6-1.4,1.7c-1,0.1-2-0.4-2-1.5C293.4,738.4,294.2,737.8,295.3,737.7z"/>
		<path d="M179.5,962.5c-0.2,1-0.8,1.7-1.8,1.8c-0.9,0.1-1.4-0.7-1.4-1.6c0-0.9,0.3-1.7,1.3-1.7
			C178.6,960.9,179.3,961.4,179.5,962.5z"/>
		<path d="M200,756.2c0.1,1-0.4,1.6-1.3,1.8c-0.9,0.2-2.1-0.6-2-1.5c0.1-0.8,0.5-1.3,1.4-1.4C199.2,755,199.9,755.3,200,756.2z"/>
		<path d="M205.7,960.2c-0.9-0.2-1.5-0.7-1.8-1.5c-0.2-0.7,0.9-1.9,1.7-1.8c0.9,0.1,1.6,0.6,1.7,1.5
			C207.4,959.3,206.6,959.8,205.7,960.2z"/>
		<path d="M293.3,803.8c0,1-0.5,1.5-1.3,1.6c-0.9,0.1-1.3-0.4-1.4-1.2c-0.1-0.8,0.3-1.4,1.2-1.5
			C292.7,802.7,293.2,803.1,293.3,803.8z"/>
		<path d="M292,796.7c0,0.8-0.5,1.4-1.2,1.5c-0.9,0.1-1.3-0.4-1.3-1.3c0-0.9,0.5-1.3,1.3-1.3C291.4,795.6,291.9,795.9,292,796.7z"/>
		<path d="M197.9,733.9c0.4,0.1,0.8,0.3,0.8,0.7c0,0.4-0.4,0.8-0.8,0.7c-0.4,0-0.8-0.3-0.8-0.8C197.1,734.2,197.5,734,197.9,733.9z"
			/>
		<path d="M202.5,973.8c0.1-0.2,0.2-0.6,0.4-0.6c0.4-0.1,0.8,0.2,0.9,0.7c0.1,0.3,0,0.7-0.3,0.7C203,974.6,202.7,974.4,202.5,973.8z
			"/>
		<path d="M315.4,956.1c-1.9,0-3.6-1.4-3.7-3.1c-0.1-1.8,1.3-3.2,3.4-3.3c2-0.1,3.5,1.1,3.6,3C318.7,954.6,317.4,956,315.4,956.1z"
			/>
		<path d="M312.6,972.2c0,1.9-1.1,3-3,3.1c-1.9,0-3.7-1.4-3.6-3c0-1.6,1.8-3.2,3.6-3.2C311.3,969,312.5,970.3,312.6,972.2z"/>
		<path d="M314.1,963.2c1.3,0,2.4,1,2.5,2.3c0.1,1.3-1.1,2.7-2.5,2.6c-1.1,0-2.3-1.3-2.3-2.5C311.7,964.4,312.8,963.3,314.1,963.2z"
			/>
		<path d="M646.7,605.4c0.4-1.8-0.4-3.7-1.9-5.6c-2.5-3.1-0.4-7.3,3.5-7.7c2.5-0.2,6.4,3.4,5.6,5.8c-1,3.3-0.7,6.8-1.7,10.1
			c-0.2,0.8-0.4,1.6-0.8,2.4c-0.6,1-1.4,2.1-2.6,1.9c-1.3-0.2-2.1-1.3-2.1-2.7C646.7,608.3,646.7,607.2,646.7,605.4z"/>
	</g>
</g>
</svg>
